<svg width="18" height="18" viewBox="0 0 18 18" fill="none" xmlns="http://www.w3.org/2000/svg">
<path d="M8.34143 14.0031C8.51604 14.1778 8.75286 14.2759 8.99979 14.2759C9.24673 14.2759 9.48354 14.1778 9.65815 14.0031L13.1693 10.492C13.5329 10.1284 13.5329 9.53894 13.1693 9.17535C12.8057 8.81176 12.2162 8.81176 11.8526 9.17535L9.93083 11.0971V0.931035C9.93083 0.416838 9.51399 0 8.99979 0C8.48559 0 8.06876 0.416838 8.06876 0.931035V11.0971L6.14699 9.17535C5.78339 8.81176 5.1939 8.81176 4.83031 9.17535C4.46672 9.53894 4.46672 10.1284 4.83031 10.492L8.34143 14.0031Z" fill="white"/>
<path d="M17.069 8.06909C16.5548 8.06909 16.1379 8.48593 16.1379 9.00013V16.1381H1.86207V9.00013C1.86207 8.48593 1.44523 8.06909 0.931034 8.06909C0.416838 8.06909 0 8.48593 0 9.00013V16.4484C0 17.3054 0.694731 18.0001 1.55172 18.0001H16.4483C17.3053 18.0001 18 17.3054 18 16.4484V9.00013C18 8.48593 17.5832 8.06909 17.069 8.06909V8.06909Z" fill="white"/>
</svg>
