<svg width="41" height="40" viewBox="0 0 41 40" fill="none" xmlns="http://www.w3.org/2000/svg">
<path fill-rule="evenodd" clip-rule="evenodd" d="M40.744 24.8118V20.836C40.744 19.4624 39.9777 18.2679 38.8493 17.6564C38.8113 12.0118 37.1662 7.60336 33.9525 4.55574C30.7647 1.53289 26.1956 0 20.372 0C14.5484 0 9.97929 1.53289 6.79154 4.55581C3.57775 7.60342 1.93261 12.0118 1.89473 17.6564C0.766348 18.2679 0 19.4624 0 20.8359V24.8117C0 26.8079 1.61811 28.4259 3.61424 28.4259H6.2369C8.83567 35.6417 15.4718 40 20.372 40C25.2722 40 31.9084 35.6417 34.5071 28.426H37.1298C39.1259 28.426 40.744 26.8078 40.744 24.8118ZM17.1723 22.0019C17.1723 23.1573 16.2357 24.094 15.0803 24.094C13.9249 24.094 12.9883 23.1574 12.9883 22.0019C12.9883 20.8466 13.9249 19.9099 15.0803 19.9099C16.2357 19.91 17.1723 20.8466 17.1723 22.0019ZM25.6638 19.9102C24.5085 19.9102 23.5718 20.8467 23.5718 22.0022C23.5718 23.1576 24.5085 24.0941 25.6638 24.0941C26.8191 24.0941 27.7559 23.1576 27.7559 22.0022C27.7558 20.8468 26.8192 19.9102 25.6638 19.9102ZM33.0945 22.0153C33.0945 21.0853 33.0469 20.2115 32.9766 19.3648C31.3726 17.8973 28.4607 16.7837 24.7856 16.3699C25.2682 16.9125 25.685 17.6263 25.9378 18.5658C25.0882 17.8965 23.9298 17.5399 22.637 17.142C20.5047 16.4856 18.0068 15.7167 15.9261 13.2461C15.7345 13.0245 15.5688 12.8127 15.4255 12.6192L15.4228 12.6158L15.4203 12.6128L15.4207 12.6129C15.2713 12.4109 15.1467 12.2295 15.0436 12.0794L15.0436 12.0794C14.7363 11.6321 14.6206 11.4635 14.6121 11.8599C14.514 16.4212 11.2811 19.9771 7.69106 20.4788C7.66835 20.9804 7.64978 21.4869 7.64978 22.0153C7.64978 23.9433 7.96461 25.7004 8.49988 27.2839C10.5164 29.7164 13.8467 30.4032 16.7942 30.5854C17.3414 29.7148 18.5691 29.1071 19.9989 29.1071C21.9374 29.1071 23.5087 30.2225 23.5087 31.5986C23.5087 32.9745 21.9373 34.09 19.9989 34.09C18.5078 34.09 17.2371 33.4289 16.7286 32.498C14.6685 32.3782 12.4039 32.0271 10.3856 31.0739C13.2239 35.2577 17.6241 37.47 20.372 37.47C24.69 37.47 33.0945 32.0151 33.0945 22.0153ZM20.372 2.1687C30.821 2.1687 36.4432 7.37195 36.6733 17.2218H35.2828C34.7743 13.9019 33.6997 11.1715 32.0683 9.07222C29.4682 5.72695 25.533 4.03068 20.372 4.03068C15.2109 4.03068 11.2758 5.72695 8.67585 9.07222C7.04429 11.1716 5.9697 13.9019 5.46127 17.2218H4.07071C4.30079 7.37195 9.92294 2.1687 20.372 2.1687Z" fill="white"/>
</svg>
