<svg width="42" height="40" viewBox="0 0 42 40" fill="none" xmlns="http://www.w3.org/2000/svg">
<path fill-rule="evenodd" clip-rule="evenodd" d="M39.2384 22.1537C36.6276 19.543 32.3948 19.543 29.784 22.1537C27.625 24.3128 27.2031 27.6604 28.7591 30.2876L33.0678 37.5627H8.50138C6.38289 37.5627 4.65939 35.8391 4.65939 33.7207C4.65939 31.6022 6.38289 29.8787 8.50138 29.8787H20.0549C23.5043 29.8787 26.3107 27.0723 26.3107 23.6228C26.3107 20.1733 23.5043 17.367 20.0549 17.367H8.12884L12.4375 10.0919C13.9935 7.46473 13.5716 4.11711 11.4126 1.95807C8.80182 -0.652689 4.56895 -0.652689 1.9582 1.95807C-0.200843 4.11703 -0.622706 7.46465 0.933271 10.0918L6.68543 19.8042L6.69927 19.7808H20.0549C22.1733 19.7808 23.8968 21.5043 23.8968 23.6228C23.8968 25.7413 22.1733 27.4648 20.0549 27.4648H8.50138C5.05189 27.4648 2.24553 30.2712 2.24553 33.7207C2.24553 37.1701 5.05189 39.9766 8.50138 39.9766H34.4973L34.5112 40L40.2633 30.2877C41.8193 27.6604 41.3974 24.3128 39.2384 22.1537ZM6.68533 8.79265C5.52329 8.79265 4.57794 7.8473 4.57794 6.68526C4.57794 5.52323 5.52329 4.57788 6.68533 4.57788C7.84736 4.57788 8.79271 5.52323 8.79271 6.68526C8.79271 7.8473 7.84736 8.79265 6.68533 8.79265ZM32.3135 26.8811C32.3135 28.0431 33.2588 28.9884 34.4209 28.9884C35.5829 28.9884 36.5282 28.0431 36.5282 26.8811C36.5282 25.719 35.5829 24.7737 34.4209 24.7737C33.2588 24.7737 32.3135 25.719 32.3135 26.8811Z" fill="white"/>
</svg>
