<svg width="40" height="40" viewBox="0 0 40 40" fill="none" xmlns="http://www.w3.org/2000/svg">
<path d="M4.27832 38.8281C4.27832 39.4753 4.80301 40 5.4502 40H33.5752C34.2224 40 34.7471 39.4753 34.7471 38.8281V35.2344H4.27832V38.8281Z" fill="white"/>
<path d="M19.5127 9.375C13.051 9.375 7.79395 14.632 7.79395 21.0938V32.8906H31.2314V21.0938C31.2314 14.632 25.9744 9.375 19.5127 9.375Z" fill="white"/>
<path d="M19.4346 7.03125C20.0818 7.03125 20.6064 6.50656 20.6064 5.85938V1.17188C20.6064 0.524687 20.0818 0 19.4346 0C18.7874 0 18.2627 0.524687 18.2627 1.17188V5.85938C18.2627 6.50656 18.7874 7.03125 19.4346 7.03125Z" fill="white"/>
<path d="M10.2075 8.68756C10.5321 9.24983 11.2494 9.43912 11.8083 9.11647C12.3689 8.79287 12.5609 8.07616 12.2372 7.51569L9.89348 3.45623C9.5698 2.89569 8.85316 2.70373 8.29269 3.02733C7.73215 3.35092 7.54012 4.06764 7.86379 4.62811L10.2075 8.68756Z" fill="white"/>
<path d="M6.24646 14.7356C6.57014 14.1751 6.3781 13.4584 5.81756 13.1348L1.75803 10.791C1.19748 10.4674 0.480761 10.6594 0.157245 11.2199C-0.166427 11.7804 0.0256045 12.4971 0.586151 12.8207L4.64568 15.1645C5.20373 15.4867 5.92146 15.2985 6.24646 14.7356Z" fill="white"/>
<path d="M27.217 9.11654C27.7751 9.4388 28.4928 9.25052 28.8178 8.68763L31.1615 4.62818C31.4852 4.06771 31.2932 3.35099 30.7326 3.0274C30.1722 2.70365 29.4554 2.89576 29.1319 3.4563L26.7881 7.51576C26.4644 8.07623 26.6565 8.79294 27.217 9.11654Z" fill="white"/>
<path d="M38.868 11.2201C38.5444 10.6596 37.8278 10.4677 37.2673 10.7912L33.2077 13.135C32.6472 13.4586 32.4552 14.1753 32.7788 14.7357C33.1034 15.298 33.8207 15.4873 34.3796 15.1646L38.4391 12.8209C38.9997 12.4973 39.1917 11.7807 38.868 11.2201Z" fill="white"/>
</svg>
