<svg width="40" height="40" viewBox="0 0 40 40" fill="none" xmlns="http://www.w3.org/2000/svg">
<path d="M4.16664 18.333V13.333C4.62664 13.333 5 12.9596 5 12.4996C5 12.0396 4.62664 11.6663 4.16664 11.6663C1.86836 11.6663 0 13.5363 0 15.833V17.4996C0 18.878 1.12164 19.9996 2.5 19.9996H4.16664C4.62664 19.9996 5 19.6263 5 19.1663C5 18.7063 4.62664 18.333 4.16664 18.333Z" fill="white"/>
<path d="M35.8334 11.6663C35.3734 11.6663 35 12.0396 35 12.4996C35 12.9596 35.3734 13.333 35.8334 13.333V18.333C35.3734 18.333 35 18.7063 35 19.1663C35 19.6263 35.3734 19.9996 35.8334 19.9996H37.5C38.8784 19.9996 40 18.878 40 17.4996V15.833C40 13.5363 38.1316 11.6663 35.8334 11.6663Z" fill="white"/>
<path d="M14.1661 35C13.7061 35 13.3327 35.3734 13.3327 35.8334H8.33273C8.33273 35.3734 7.95937 35 7.49937 35C7.03937 35 6.66602 35.3734 6.66602 35.8334V37.5C6.66602 38.8784 7.78766 40 9.16602 40H12.4995C13.8778 40 14.9995 38.8784 14.9995 37.5V35.8334C14.9995 35.3734 14.6261 35 14.1661 35Z" fill="white"/>
<path d="M32.5 35C32.04 35 31.6666 35.3734 31.6666 35.8334H26.6666C26.6666 35.3734 26.2933 35 25.8333 35C25.3733 35 25 35.3734 25 35.8334V37.5C25 38.8784 26.1216 40 27.5 40H30.8334C32.2117 40 33.3334 38.8784 33.3334 37.5V35.8334C33.3334 35.3734 32.96 35 32.5 35Z" fill="white"/>
<path fill-rule="evenodd" clip-rule="evenodd" d="M32.5006 0H7.50063C5.20227 0 3.33398 1.87 3.33398 4.16664V32.5C3.33398 34.7966 5.20234 36.6666 7.50063 36.6666H32.5006C34.799 36.6666 36.6673 34.7966 36.6673 32.5V4.16664C36.6673 1.87 34.799 0 32.5006 0ZM10.8337 3.33374H29.1671C30.5455 3.33374 31.6671 4.45538 31.6671 5.83374C31.6671 7.2121 30.5455 8.33374 29.1671 8.33374H10.8337C9.45538 8.33374 8.33374 7.2121 8.33374 5.83374C8.33374 4.45538 9.45538 3.33374 10.8337 3.33374ZM8.33374 29.1663C8.33374 30.5446 9.45538 31.6663 10.8337 31.6663C12.212 31.6663 13.3337 30.5446 13.3337 29.1663C13.3337 27.7879 12.2121 26.6663 10.8337 26.6663C9.45538 26.6663 8.33374 27.7879 8.33374 29.1663ZM29.1663 31.6663C27.7879 31.6663 26.6663 30.5446 26.6663 29.1663C26.6663 27.7879 27.7879 26.6663 29.1663 26.6663C30.5446 26.6663 31.6663 27.7879 31.6663 29.1663C31.6663 30.5446 30.5446 31.6663 29.1663 31.6663ZM30.833 23.3334C32.2113 23.3334 33.333 22.2117 33.333 20.8334H33.3329V12.5C33.3329 11.1216 32.2113 10 30.8329 10H9.16626C7.7879 10 6.66626 11.1216 6.66626 12.5V20.8334C6.66626 22.2117 7.7879 23.3334 9.16626 23.3334H30.833Z" fill="white"/>
</svg>
