<svg width="43" height="40" viewBox="0 0 43 40" fill="none" xmlns="http://www.w3.org/2000/svg">
<circle cx="14.2223" cy="23.111" r="2.66667" fill="white"/>
<path fill-rule="evenodd" clip-rule="evenodd" d="M40 13.488C40 14.8587 39.8133 16.8516 39.6107 18.6009C41.4151 19.3369 42.6667 21.0791 42.6667 23.1111C42.6667 25.6782 40.672 27.7671 38.1529 27.9627C35.744 34.9564 29.1218 40 21.3333 40C13.5449 40 6.92267 34.9547 4.51378 27.9627C1.99644 27.7671 0 25.6782 0 23.1111C0 21.0809 1.25156 19.3387 3.05244 18.6027C2.85156 16.8622 2.66667 14.8782 2.66667 13.488C2.66667 5.95556 8.57956 3.69244 12.1351 3.488C13.2711 2.512 16.6507 0 21.3333 0C28.5511 0 40 3.66222 40 13.488ZM35.8648 26.3636C35.8658 26.3623 35.8667 26.3609 35.8667 26.3591C36.0302 25.7884 36.1565 25.2053 36.2525 24.6115L34.5493 18.6613C22.6258 18.5138 17.2676 15.7404 14.8765 13.4809C13.3227 16.4871 9.77424 17.9111 8.19024 18.4142L6.41602 24.6204C7.58935 31.8169 13.8222 37.3333 21.3333 37.3333C28.2222 37.3333 34.0391 32.6933 35.8631 26.3733V26.368C35.8631 26.3662 35.864 26.3649 35.8648 26.3636Z" fill="white"/>
<circle cx="28.4445" cy="23.111" r="2.66667" fill="white"/>
<path d="M24.8514 29.7067C22.9118 31.5823 19.7545 31.5823 17.8149 29.7067C17.2869 29.2 16.4407 29.2107 15.9287 29.7423C15.4167 30.272 15.4327 31.1147 15.9625 31.6285C17.4434 33.0578 19.3882 33.7707 21.3331 33.7707C23.278 33.7707 25.2229 33.0578 26.7038 31.6285C27.2336 31.1165 27.2478 30.272 26.7376 29.7423C26.2256 29.2107 25.3811 29.2 24.8514 29.7067Z" fill="white"/>
</svg>
