<svg width="56" height="40" viewBox="0 0 56 40" fill="none" xmlns="http://www.w3.org/2000/svg">
<path d="M16.3747 0H13.4436C13.1738 0 12.8531 0.308762 12.7283 0.689619L0.0266513 39.3114C-0.0985868 39.6924 0.229508 40.0006 0.759985 40L6.51846 39.9933C7.00113 40.0249 7.451 39.7479 7.64008 39.3027L16.7014 0.689524C16.7905 0.308762 16.6445 0 16.3747 0Z" fill="white"/>
<path fill-rule="evenodd" clip-rule="evenodd" d="M20.276 0C20.0379 0 19.7998 0.304762 19.7332 0.685714L13.3427 39.2952C13.276 39.6762 13.5998 39.9905 14.076 39.9905L23.9998 39.9714C23.8658 39.737 23.7998 39.4699 23.8093 39.2L23.9332 33.1238C23.9858 32.1518 24.8081 31.4016 25.7808 31.4381L27.6093 31.4286L29.457 31.4381C30.4297 31.4016 31.2519 32.1518 31.3046 33.1238L31.4284 39.2C31.4379 39.4699 31.3719 39.737 31.2379 39.9714L41.1617 39.9905C41.6379 39.9905 41.9617 39.6762 41.8951 39.2952L35.5046 0.685714C35.4379 0.304762 35.1998 0 34.9617 0H30.5331L30.676 5.97143C30.6891 6.41627 30.5246 6.84804 30.2189 7.17143C29.9433 7.45441 29.5662 7.61556 29.1712 7.61905H26.0665C25.6715 7.61556 25.2944 7.45441 25.0189 7.17143C24.7131 6.84804 24.5486 6.41627 24.5617 5.97143L24.7046 0H20.276ZM31.1714 26.9334C31.1811 27.3458 31.023 27.7444 30.7333 28.0381C30.3788 28.3822 29.9036 28.5737 29.4095 28.5715H25.8286C25.3345 28.5737 24.8593 28.3822 24.5048 28.0381C24.2151 27.7444 24.057 27.3458 24.0667 26.9334L24.1905 21.6C24.2366 20.6915 24.9952 19.9834 25.9048 20H29.3333C30.2429 19.9834 31.0015 20.6915 31.0476 21.6L31.1714 26.9334ZM29.2095 9.52382H26.0286C25.1805 9.508 24.4746 10.1716 24.4381 11.0191L24.3143 15.5905C24.3025 15.9855 24.4541 16.368 24.7333 16.6476C25.057 16.9692 25.4961 17.1476 25.9524 17.1429H29.2857C29.742 17.1476 30.1811 16.9692 30.5048 16.6476C30.784 16.368 30.9356 15.9855 30.9238 15.5905L30.8 11.0191C30.7635 10.1716 30.0576 9.508 29.2095 9.52382Z" fill="white"/>
<path d="M48.7199 39.9933L54.4784 40C55.0084 40.0006 55.3365 39.6923 55.2117 39.3114L42.5096 0.689619C42.3844 0.308667 42.0641 0 41.7943 0H38.8632C38.5934 0 38.4471 0.308762 38.5365 0.689524L47.5983 39.3027C47.7874 39.7479 48.2372 40.0249 48.7199 39.9933Z" fill="white"/>
</svg>
