<?xml version="1.0" standalone="no"?>
<!DOCTYPE svg PUBLIC "-//W3C//DTD SVG 20010904//EN"
 "http://www.w3.org/TR/2001/REC-SVG-20010904/DTD/svg10.dtd">
<svg version="1.0" xmlns="http://www.w3.org/2000/svg"
 width="700.000000pt" height="700.000000pt" viewBox="0 0 700.000000 700.000000"
 preserveAspectRatio="xMidYMid meet">
<metadata>
Created by potrace 1.14, written by Peter Selinger 2001-2017
</metadata>
<g transform="translate(0.000000,700.000000) scale(0.100000,-0.100000)"
fill="#000000" stroke="none">
<path d="M1470 6984 c-188 -29 -399 -99 -560 -186 -459 -250 -772 -674 -882
-1195 l-23 -108 0 -1995 0 -1995 23 -108 c149 -705 664 -1220 1369 -1369 l108
-23 2000 0 2000 0 103 23 c709 157 1222 673 1364 1374 l23 113 0 1995 0 1995
-23 105 c-154 699 -655 1202 -1357 1362 l-100 22 -1975 2 c-1674 2 -1989 0
-2070 -12z m2300 -1383 c251 -57 446 -165 631 -350 154 -154 249 -306 314
-506 31 -93 65 -273 65 -339 l0 -26 -350 0 -349 0 -6 38 c-59 357 -382 579
-719 492 -110 -28 -170 -63 -261 -155 -94 -94 -139 -176 -163 -296 l-15 -79
-349 0 c-348 0 -348 0 -348 21 0 51 33 237 56 317 94 324 347 623 659 780 116
58 285 108 425 126 79 10 327 -4 410 -23z m-838 -3060 c24 -120 69 -202 163
-296 91 -92 151 -127 261 -155 193 -50 385 -1 532 135 100 93 163 213 187 358
l6 37 350 0 351 0 -7 -72 c-30 -316 -152 -578 -374 -799 -153 -154 -303 -247
-504 -314 -463 -154 -976 -25 -1317 331 -193 202 -303 428 -344 707 -9 58 -16
114 -16 126 0 21 0 21 348 21 l349 0 15 -79z"/>
</g>
</svg>
