<svg width="32" height="32" viewBox="0 0 32 32" fill="none" xmlns="http://www.w3.org/2000/svg">
<path d="M22.9077 31.9999C22.0953 31.9999 21.1163 31.7083 19.9706 31.125C18.8458 30.5209 17.6272 29.7398 16.315 28.7816C15.0027 27.8026 13.6487 26.6986 12.2531 25.4697C10.8783 24.2407 9.52434 22.9909 8.19122 21.7202C6.87892 20.4704 5.72286 19.1269 4.72301 17.6896C3.72317 16.2732 2.87955 14.8776 2.19216 13.5028C1.52559 12.128 1.00484 10.8261 0.629902 9.59713C0.27579 8.38899 0.0674895 7.36832 0.00499922 6.53511C-0.0366609 5.78523 0.182055 5.04576 0.661147 4.31671C1.11941 3.56683 1.71307 2.90026 2.44212 2.31702C3.192 1.71295 4.00437 1.20261 4.87924 0.786011C5.7541 0.369409 6.5873 0.109033 7.37885 0.00488281L11.7844 8.94099L9.566 11.5031C9.79514 11.878 10.42 12.6904 11.4407 13.9402C12.4614 15.19 13.4821 16.3357 14.5027 17.3772C15.5234 18.3978 16.5857 19.3769 17.6897 20.3142C18.8146 21.2307 19.5644 21.7931 19.9394 22.0014L23.0951 19.6581C23.0951 19.6581 23.4284 19.8039 24.095 20.0955C24.7615 20.3871 25.5427 20.7308 26.4384 21.1266C27.3341 21.5015 28.2298 21.8973 29.1254 22.3139C30.0211 22.7305 30.6981 23.0534 31.1564 23.2825C31.1564 23.2825 31.2397 23.3554 31.4063 23.5012C31.573 23.647 31.7188 23.9074 31.8438 24.2823C31.9479 24.6573 32 24.9281 32 25.0947C32 25.2405 32 25.3134 32 25.3134C31.6251 26.9173 30.8439 28.1671 29.6566 29.0628C28.4901 29.9585 27.2091 30.7188 25.8135 31.3437C25.8135 31.3437 25.6781 31.3958 25.4073 31.5C25.1365 31.6041 24.7824 31.7083 24.3449 31.8124C23.8867 31.9374 23.5326 31.9999 23.2826 31.9999C23.0326 31.9999 22.9077 31.9999 22.9077 31.9999Z" fill="#4C74B7"/>
</svg>
