<svg width="51" height="51" viewBox="0 0 51 51" fill="none" xmlns="http://www.w3.org/2000/svg">
<path d="M0.93934 47.9393C0.353553 48.5251 0.353553 49.4749 0.93934 50.0607C1.52513 50.6464 2.47487 50.6464 3.06066 50.0607L0.93934 47.9393ZM50.8762 1.62385C50.8762 0.79542 50.2046 0.123847 49.3762 0.123846L35.8762 0.123848C35.0477 0.123846 34.3762 0.79542 34.3762 1.62385C34.3762 2.45227 35.0477 3.12385 35.8762 3.12385L47.8762 3.12385L47.8762 15.1238C47.8762 15.9523 48.5477 16.6238 49.3762 16.6238C50.2046 16.6238 50.8762 15.9523 50.8762 15.1238L50.8762 1.62385ZM3.06066 50.0607L50.4368 2.68451L48.3155 0.563186L0.93934 47.9393L3.06066 50.0607Z" fill="#F0B730"/>
</svg>
