<svg width="64" height="64" viewBox="0 0 64 64" fill="none" xmlns="http://www.w3.org/2000/svg">
<path d="M63.0568 45.8932L45.5296 35.8653C44.7952 35.4452 43.8706 35.569 43.2726 36.167L41.0465 38.3932L38.1041 35.4507L46.6899 26.8644L36.8457 17.0203L28.2603 25.6063L25.6095 22.9553L27.8357 20.7288C28.4338 20.1307 28.5573 19.2061 28.1373 18.4719L18.11 0.944166C17.62 0.0876647 16.5498 -0.242461 15.6622 0.189165L1.05869 7.29342C0.51356 7.55855 0.130184 8.07118 0.0298091 8.66905C-0.070566 9.26693 0.124309 9.87655 0.55306 10.3053L18.0801 27.8332C18.4317 28.185 18.9086 28.3825 19.406 28.3825C19.9033 28.3825 20.3802 28.185 20.7318 27.8332L22.958 25.6069L25.9557 28.605C25.2691 30.1973 25.203 31.9951 25.7597 33.6265C24.222 32.7943 22.4928 32.3516 20.6953 32.3516C17.847 32.3516 15.169 33.4608 13.1548 35.4751C12.4227 36.2073 12.4227 37.3945 13.1548 38.1267L18.0438 43.0158L16.7991 44.2606C16.067 44.9928 16.067 46.18 16.7992 46.9122C17.1653 47.2785 17.6452 47.4615 18.125 47.4615C18.6047 47.4615 19.0847 47.2784 19.4508 46.9122L20.6955 45.6676L25.5842 50.5566C25.9358 50.9084 26.4127 51.1059 26.9101 51.1059C27.4075 51.1059 27.8843 50.9084 28.236 50.5566C31.6427 47.1497 32.256 41.9928 30.0798 37.9535C30.7985 38.1997 31.5603 38.3293 32.3424 38.3293C33.31 38.3293 34.2467 38.1316 35.1087 37.7582L38.3952 41.0448L36.169 43.2712C35.4367 44.0033 35.4367 45.1905 36.169 45.9229L53.696 63.4507C54.0505 63.8052 54.5286 64 55.0216 64C55.1248 64 55.2286 63.9915 55.3321 63.9741C55.93 63.8737 56.4426 63.4904 56.7079 62.9451L63.8119 48.3409C64.2434 47.4534 63.9133 46.3834 63.0568 45.8932Z" fill="#F5E4FF"/>
<path d="M18.1241 59.9619C10.1983 59.9619 3.75 53.5133 3.75 45.5869C3.75 44.5514 2.9105 43.7119 1.875 43.7119C0.839501 43.7119 0 44.5514 0 45.5869C0 55.5811 8.13039 63.7119 18.124 63.7119C19.1595 63.7119 19.999 62.8724 19.999 61.8369C19.999 60.8014 19.1598 59.9619 18.1241 59.9619Z" fill="#F5E4FF"/>
<path d="M18.1245 51.8369C14.6785 51.8369 11.875 49.0332 11.875 45.5869C11.875 44.5514 11.0355 43.7119 10 43.7119C8.9645 43.7119 8.125 44.5514 8.125 45.5869C8.125 51.1009 12.6108 55.5869 18.1245 55.5869C19.16 55.5869 19.9995 54.7476 19.9995 53.7119C19.9995 52.6764 19.1601 51.8369 18.1245 51.8369Z" fill="#F5E4FF"/>
<path d="M50.3454 23.2085C53.0256 20.528 53.0256 16.1663 50.3454 13.4858C50.3452 13.4858 50.3452 13.4858 50.3452 13.4858L50.2237 13.3642C48.9251 12.0656 47.1989 11.3506 45.3626 11.3506C43.5262 11.3506 41.7998 12.0657 40.5015 13.3642L39.4961 14.3697L49.3402 24.2137L50.3454 23.2085Z" fill="#F5E4FF"/>
</svg>
