<svg width="70" height="64" viewBox="0 0 70 64" fill="none" xmlns="http://www.w3.org/2000/svg">
<path d="M67.2341 50.5261H2.02106C0.904898 50.5261 0 51.431 0 52.5472C0 58.8622 5.13768 63.9999 11.4527 63.9999H57.8024C64.1174 63.9999 69.2551 58.8622 69.2551 52.5472C69.2551 51.431 68.3502 50.5261 67.2341 50.5261Z" fill="#F5E4FF"/>
<path d="M47.4268 4.87988V8.75857H51.3054L47.4268 4.87988Z" fill="#F5E4FF"/>
<path d="M56.1855 2.02106C56.1855 0.904898 55.2806 0 54.1644 0H48.2646L56.1855 7.92082V2.02106Z" fill="#F5E4FF"/>
<path fill-rule="evenodd" clip-rule="evenodd" d="M45.4069 12.8001H56.1859V46.4845H12.8003V2.02106C12.8003 0.904897 13.7052 0 14.8214 0H43.3859V10.779C43.3859 11.8952 44.2908 12.8001 45.4069 12.8001ZM35.3016 4.17761H22.9056C21.7894 4.17761 20.8845 5.08251 20.8845 6.19868C20.8845 7.31484 21.7894 8.21974 22.9056 8.21974H35.3016C36.4177 8.21974 37.3226 7.31484 37.3226 6.19868C37.3226 5.08251 36.4177 4.17761 35.3016 4.17761ZM22.9056 12.26H35.3016C36.4177 12.26 37.3226 13.1649 37.3226 14.2811C37.3226 15.3972 36.4177 16.3021 35.3016 16.3021H22.9056C21.7894 16.3021 20.8845 15.3972 20.8845 14.2811C20.8845 13.1649 21.7894 12.26 22.9056 12.26ZM22.9056 42.5764H46.0807C47.1969 42.5764 48.1018 41.6715 48.1018 40.5554C48.1018 39.4392 47.1969 38.5343 46.0807 38.5343H22.9056C21.7894 38.5343 20.8845 39.4392 20.8845 40.5554C20.8845 41.6715 21.7894 42.5764 22.9056 42.5764ZM46.0807 34.4933H22.9056C21.7894 34.4933 20.8845 33.5884 20.8845 32.4722C20.8845 31.3561 21.7894 30.4512 22.9056 30.4512H46.0807C47.1969 30.4512 48.1018 31.3561 48.1018 32.4722C48.1018 33.5884 47.1969 34.4933 46.0807 34.4933ZM22.9056 26.4086H46.0807C47.1969 26.4086 48.1018 25.5037 48.1018 24.3875C48.1018 23.2714 47.1969 22.3665 46.0807 22.3665H22.9056C21.7894 22.3665 20.8845 23.2714 20.8845 24.3875C20.8845 25.5037 21.7894 26.4086 22.9056 26.4086Z" fill="#F5E4FF"/>
<path d="M64.5385 8.86164C64.5385 7.74547 63.6336 6.84058 62.5175 6.84058H60.2271V46.4839H64.5385V8.86164Z" fill="#F5E4FF"/>
<path d="M8.75795 6.84058H6.73688C5.62072 6.84058 4.71582 7.74547 4.71582 8.86164V46.4839H8.75795V6.84058Z" fill="#F5E4FF"/>
</svg>
