<svg width="82" height="64" viewBox="0 0 82 64" fill="none" xmlns="http://www.w3.org/2000/svg">
<path fill-rule="evenodd" clip-rule="evenodd" d="M52.0002 31.9994C56.265 31.9994 59.962 29.5553 61.7858 25.999H69.9998V41.3318C63.7194 42.7101 58.9999 48.3113 58.9999 55.0001C58.9999 58.4264 60.242 61.5635 62.2917 63.9999H0V25.999H42.2146C44.0399 29.5553 47.7354 31.9994 52.0002 31.9994ZM22.9988 44.9993C22.9988 51.6262 28.3727 57.0001 34.9995 57.0001C41.6264 57.0001 47.0003 51.6277 47.0003 44.9993C47.0003 38.3709 41.628 32.9985 34.9995 32.9985C28.3711 32.9985 22.9988 38.3724 22.9988 44.9993Z" fill="#F5E4FF"/>
<circle cx="72.9974" cy="54.9956" r="8.9998" fill="#F5E4FF"/>
<circle cx="51.9999" cy="21.0018" r="6.00038" fill="#F5E4FF"/>
<path d="M13.1127 0L9.32129 21.0006H41C41 14.9352 45.9346 10.0006 51.9999 10.0006C58.0653 10.0006 62.9999 14.9352 62.9999 21.0006H69.9995H74.9991V26.0001V41.1596C75.5946 41.2462 76.1794 41.3669 76.7486 41.5247L82.0003 12.4354L13.1127 0Z" fill="#F5E4FF"/>
</svg>
