<svg width="110" height="64" viewBox="0 0 110 64" fill="none" xmlns="http://www.w3.org/2000/svg">
<path fill-rule="evenodd" clip-rule="evenodd" d="M102.704 29.8615L102.721 29.865C105.514 30.451 109.735 31.3366 109.735 38.8327V48.2393C109.735 51.296 107.248 53.7829 104.191 53.7829H96.4252C95.5829 59.5536 90.602 64 84.6002 64C78.5937 64 73.6099 59.5458 72.7743 53.7677C72.6581 53.7753 72.5416 53.7829 72.4279 53.7829H50.5475C49.7053 59.5536 44.7244 64 38.7226 64C32.7213 64 27.7406 59.5536 26.8986 53.7829H21.4921C19.7326 53.7829 18.301 52.3513 18.301 50.5919V45.5929H14.1806C11.4311 45.5929 9.19404 43.3559 9.19404 40.6064C9.19404 37.8568 11.4311 35.6198 14.1806 35.6198H18.301V30.8403H9.58361C6.83408 30.8403 4.59702 28.6032 4.59702 25.8537C4.59702 23.1042 6.83408 20.8671 9.58361 20.8671H18.301V16.0877H4.98659C2.23706 16.0877 0 13.8508 0 11.1011C0 8.35131 2.23706 6.11449 4.98659 6.11425H18.3012V3.21787C18.3012 1.41308 19.5926 0.0521957 21.3051 0.0521957L73.2802 0C75.0401 0 76.4717 1.43159 76.4717 3.19106V12.9903H83.934C86.8624 12.9903 90.3408 15.1061 91.6879 17.7067L95.8795 26.1928C96.986 28.3292 98.4826 28.7966 101.762 29.6493C102.046 29.7233 102.366 29.7904 102.704 29.8615ZM88.9454 52.05C88.9454 49.6545 86.9959 47.7057 84.5996 47.7057C82.2043 47.7057 80.2555 49.6545 80.2555 52.05C80.2555 54.4456 82.2043 56.3944 84.5996 56.3944C86.9959 56.3944 88.9454 54.4456 88.9454 52.05ZM76.471 29.1883V17.6177H82.1736C84.3654 17.6177 87.0691 19.2623 88.0727 21.1988L91.8025 28.7503C91.8816 28.9031 91.9636 29.0488 92.0488 29.1883H76.471ZM38.7222 56.3944C41.1184 56.3944 43.0679 54.4453 43.0679 52.05C43.0679 49.6547 41.1184 47.7059 38.7222 47.7057C36.3269 47.7057 34.3783 49.6545 34.3783 52.05C34.3783 54.4456 36.3269 56.3944 38.7222 56.3944Z" fill="#F5E4FF"/>
</svg>
