<svg width="36" height="64" viewBox="0 0 36 64" fill="none" xmlns="http://www.w3.org/2000/svg">
<path fill-rule="evenodd" clip-rule="evenodd" d="M28.42 0H6.79899C3.12322 0 0 2.99715 0 6.67191V57.3357C0 61.0105 3.05713 64 6.73291 64L28.3895 63.9766C32.0648 63.9766 35.0716 60.9866 35.0716 57.3113L35.1031 6.66835C35.1026 2.98037 32.1106 0 28.42 0ZM14.4846 3.99988H20.7574C21.3085 3.99988 21.7573 4.44721 21.7573 4.99977C21.7573 5.55234 21.3085 5.99967 20.7574 5.99967H14.4846C13.932 5.99967 13.4847 5.55234 13.4847 4.99977C13.4847 4.44721 13.932 3.99988 14.4846 3.99988ZM12.1309 4.31828C11.7608 3.94313 11.0862 3.94821 10.7157 4.31828C10.5311 4.50331 10.4254 4.76307 10.4259 5.02842C10.4259 5.28869 10.5311 5.54845 10.7157 5.73349C10.9063 5.91903 11.161 6.02832 11.4258 6.02832C11.6856 6.02832 11.9464 5.91903 12.1309 5.73349C12.3164 5.54794 12.4262 5.28869 12.4262 5.02842C12.4262 4.76307 12.3164 4.50331 12.1309 4.31828ZM17.4218 62.0181C15.7717 62.0181 14.4297 60.6751 14.4297 59.0255C14.4297 57.3755 15.7717 56.033 17.4218 56.033C19.0718 56.033 20.4138 57.3755 20.4138 59.0255C20.4138 60.6751 19.0713 62.0181 17.4218 62.0181ZM3.50128 53.9991H32.0006V9.50037H3.50128V53.9991Z" fill="#F5E4FF"/>
</svg>
