<svg width="62" height="65" viewBox="0 0 62 65" fill="none" xmlns="http://www.w3.org/2000/svg">
<path d="M4.26666 6.19547C4.26666 4.43118 5.70242 2.99542 7.46671 2.99542H46.9339C48.6982 2.99542 50.134 4.43118 50.134 6.19547V14.4057L47.8214 10.9369L46.0465 12.1198L51.2007 19.8522L56.3549 12.1209L54.5799 10.9379L52.2674 14.4057V6.19547C52.2674 3.25463 49.8748 0.862061 46.9339 0.862061H7.46671C4.52587 0.862061 2.1333 3.25463 2.1333 6.19547V11.5289H4.26666V6.19547Z" fill="#F5E4FF"/>
<path d="M2.1333 13.6628H4.26666V15.7962H2.1333V13.6628Z" fill="#F5E4FF"/>
<path d="M2.1333 17.929H4.26666V20.0623H2.1333V17.929Z" fill="#F5E4FF"/>
<path d="M1.06668 43.5299H20.267C20.8547 43.5299 21.3336 43.052 21.3336 42.4632V40.3299C21.3336 39.7411 20.8547 39.2632 20.267 39.2632H1.06668C0.47894 39.2632 0 39.7411 0 40.3299V42.4632C0 43.052 0.47894 43.5299 1.06668 43.5299Z" fill="#F5E4FF"/>
<path d="M23.4673 11.5286H38.4008V15.7953H23.4673V11.5286Z" fill="#F5E4FF"/>
<path d="M2.1333 56.3293H19.2002V58.4627H2.1333V56.3293Z" fill="#F5E4FF"/>
<path d="M2.1333 45.6636H19.2002V47.7969H2.1333V45.6636Z" fill="#F5E4FF"/>
<path d="M1.06668 54.1957H20.267C20.8547 54.1957 21.3336 53.7178 21.3336 53.129V50.9956C21.3336 50.4068 20.8547 49.929 20.267 49.929H1.06668C0.47894 49.929 0 50.4068 0 50.9956V53.129C0 53.7178 0.47894 54.1957 1.06668 54.1957Z" fill="#F5E4FF"/>
<path fill-rule="evenodd" clip-rule="evenodd" d="M59.5276 35.8885L59.3548 36.4475C59.2033 36.9371 58.9985 37.4299 58.7447 37.9099L58.4716 38.4272L59.6759 40.5382L57.8092 42.4038L55.6982 41.1985L55.1798 41.4737C54.7051 41.7254 54.2134 41.9302 53.7195 42.0838L53.1595 42.2555L52.5195 44.5948H49.8805L49.2405 42.2555L48.6805 42.0838C48.1866 41.9313 47.6949 41.7254 47.2202 41.4737L46.7018 41.1985L44.5909 42.4038L42.7242 40.5382L43.9285 38.4272L43.6554 37.9099C43.4015 37.4299 43.1967 36.9371 43.0452 36.4475L42.8724 35.8885L40.5332 35.2474V32.6095L42.8703 31.9717L43.0431 31.4117C43.1946 30.9199 43.4004 30.4282 43.6532 29.9492L43.9263 29.4308L42.722 27.3199L44.5887 25.4532L46.6997 26.6575L47.2181 26.3844C47.697 26.1305 48.1898 25.9257 48.6805 25.7742L49.2405 25.6014L49.8805 23.2622H52.5195L53.1574 25.5993L53.7174 25.7721C54.2091 25.9236 54.7009 26.1294 55.1798 26.3823L55.6982 26.6553L57.8092 25.451L59.6759 27.3177L58.4716 29.4287L58.7447 29.9471C58.9985 30.426 59.2033 30.9188 59.3548 31.4095L59.5276 31.9695L61.8668 32.6095V35.2474L59.5276 35.8885ZM44.8016 33.9305C44.8016 37.4601 47.672 40.3306 51.2017 40.3306C54.7313 40.3306 57.6018 37.4601 57.6018 33.9305C57.6018 30.4008 54.7313 27.5304 51.2017 27.5304C47.672 27.5304 44.8016 30.4008 44.8016 33.9305Z" fill="#F5E4FF"/>
<circle cx="51.2013" cy="33.9303" r="4.26673" fill="#F5E4FF"/>
<path d="M20.267 60.5955H1.06668C0.47894 60.5955 0 61.0733 0 61.6621V63.7955C0 64.3843 0.47894 64.8622 1.06668 64.8622H20.267C20.8547 64.8622 21.3336 64.3843 21.3336 63.7955V61.6621C21.3336 61.0733 20.8547 60.5955 20.267 60.5955Z" fill="#F5E4FF"/>
<path d="M27.7324 47.7966H38.3992V58.4635H27.7324V47.7966Z" fill="#F5E4FF"/>
<path fill-rule="evenodd" clip-rule="evenodd" d="M41.5059 38.3722C41.395 38.1301 41.2926 37.8869 41.2008 37.6426L38.4008 36.8778V30.9823L41.2008 30.2164C41.2926 29.9721 41.3939 29.7278 41.5059 29.4857L40.0659 26.9619L42.6675 24.3614V7.26245H19.2005V17.9293H8.53369V37.1295H20.2672C22.0315 37.1295 23.4672 38.5653 23.4672 40.3296V42.463C23.4672 43.8518 22.5723 45.0251 21.3339 45.4667V47.9937C22.5723 48.4353 23.4672 49.6087 23.4672 50.9975V53.1308C23.4672 54.5197 22.5723 55.693 21.3339 56.1346V58.6616C22.5723 59.1032 23.4672 60.2765 23.4672 61.6654V62.732H42.6675V43.4987L40.0659 40.8971L41.5059 38.3722ZM21.3347 9.39551H40.5349V17.929H21.3347V9.39551ZM40.5347 20.0631H14.9343V22.1965H40.5347V20.0631ZM10.6671 20.0631H12.8005V22.1965H10.6671V20.0631ZM38.4008 24.3293H10.6671V26.4627H38.4008V24.3293ZM10.6671 28.5967H38.4008V30.73H10.6671V28.5967ZM38.4002 43.5287V41.3954H25.6V43.5287H38.4002ZM29.8682 34.9953V32.8619H32.0015V34.9953H29.8682ZM34.1334 32.8619V34.9953H36.2668V32.8619H34.1334ZM10.6671 34.9953V32.8619H27.734V34.9953H10.6671ZM40.5335 60.5971V45.6636H25.6V60.5971H40.5335Z" fill="#F5E4FF"/>
<path d="M17.0662 8.77002L10.041 15.7952H17.0662V8.77002Z" fill="#F5E4FF"/>
</svg>
