<svg width="114" height="64" viewBox="0 0 114 64" fill="none" xmlns="http://www.w3.org/2000/svg">
<path d="M70.5542 40.2051C67.7052 38.6489 64.4379 37.7656 60.9646 37.7656H52.7098C49.1392 37.7656 45.7877 38.6998 42.8856 40.3357C36.7825 43.7713 32.6606 50.3127 32.6606 57.8148V63.9998H81.0138V57.8148C81.0138 50.2153 76.7857 43.6053 70.5542 40.2051Z" fill="#F5E4FF"/>
<path d="M93.3497 32.2695H86.4873C82.4806 32.2695 78.7461 33.4538 75.6138 35.4948C77.1191 36.4821 78.5336 37.6355 79.8375 38.9393C84.878 43.9798 87.6539 50.6828 87.6539 57.8131V60.7218H113.339V52.259C113.339 41.2371 104.372 32.2695 93.3497 32.2695Z" fill="#F5E4FF"/>
<path d="M26.8518 32.2695H19.9894C8.96757 32.2695 0 41.2371 0 52.259V60.7218H26.0195V57.8131C26.0195 50.6828 28.7976 43.9798 33.8381 38.9393C35.0933 37.6842 36.4503 36.5685 37.8936 35.6055C34.728 33.4981 30.9316 32.2695 26.8518 32.2695Z" fill="#F5E4FF"/>
<path d="M89.9095 2.2085C89.8743 2.2085 89.8378 2.20872 89.8024 2.20916C82.3737 2.27048 76.3827 8.69123 76.4473 16.5216C76.5117 24.3149 82.5493 30.6121 89.9299 30.6121C89.9653 30.6121 90.0016 30.6119 90.037 30.6114C93.6796 30.5813 97.0787 29.0468 99.6085 26.2901C102.079 23.5974 103.423 20.0493 103.392 16.2989C103.328 8.50572 97.2903 2.2085 89.9095 2.2085Z" fill="#F5E4FF"/>
<path d="M23.4115 2.2085C23.3763 2.2085 23.3397 2.20872 23.3043 2.20916C15.8757 2.27048 9.88461 8.69123 9.94925 16.5216C10.0134 24.3149 16.0512 30.6121 23.4318 30.6121C23.4672 30.6121 23.5035 30.6119 23.539 30.6114C27.1813 30.5813 30.5806 29.0468 33.1104 26.2901C35.5815 23.5974 36.9252 20.0493 36.8943 16.2989C36.8298 8.50572 30.7923 2.2085 23.4115 2.2085Z" fill="#F5E4FF"/>
<path d="M56.8382 0C48.2735 0 41.3071 7.36045 41.3071 16.4099C41.3071 22.9491 44.9464 28.6072 50.1994 31.2415C52.2139 32.2532 54.4652 32.8176 56.8382 32.8176C59.2113 32.8176 61.4626 32.2532 63.477 31.2415C68.7301 28.6072 72.3693 22.9491 72.3693 16.4099C72.3693 7.36045 65.4029 0 56.8382 0Z" fill="#F5E4FF"/>
</svg>
