<svg width="209" height="53" viewBox="0 0 209 53" fill="none" xmlns="http://www.w3.org/2000/svg">
<path fill-rule="evenodd" clip-rule="evenodd" d="M188.377 7.15931C188.275 7.26176 188.145 7.31298 187.987 7.31298H186.498C186.34 7.31298 186.21 7.26176 186.108 7.15931C186.005 7.05685 185.954 6.92682 185.954 6.7692V5.49251C185.954 5.33489 186.005 5.20486 186.108 5.10241C186.21 4.99996 186.34 4.94873 186.498 4.94873H187.987C188.145 4.94873 188.275 4.99996 188.377 5.10241C188.48 5.20486 188.531 5.33489 188.531 5.49251V6.7692C188.531 6.92682 188.48 7.05685 188.377 7.15931ZM129.269 21.7468C129.166 21.8493 129.036 21.9005 128.879 21.9005H127.247C126.365 21.9005 125.647 21.7311 125.096 21.3922C124.544 21.0533 124.142 20.5726 123.89 19.95C123.638 19.3274 123.512 18.5906 123.512 17.7394V11.4978H121.668C121.51 11.4978 121.38 11.4466 121.277 11.3441C121.175 11.2417 121.124 11.1116 121.124 10.954V10.1502C121.124 9.99257 121.175 9.86254 121.277 9.76008C121.38 9.65763 121.51 9.60641 121.668 9.60641H123.512V5.65811C123.512 5.50049 123.563 5.37046 123.665 5.26801C123.768 5.16556 123.898 5.11433 124.055 5.11433H125.167C125.324 5.11433 125.454 5.16556 125.557 5.26801C125.659 5.37046 125.71 5.50049 125.71 5.65811V9.60641H128.642C128.8 9.60641 128.93 9.65763 129.032 9.76008C129.135 9.86254 129.186 9.99257 129.186 10.1502V10.954C129.186 11.1116 129.135 11.2417 129.032 11.3441C128.93 11.4466 128.8 11.4978 128.642 11.4978H125.71V17.5739C125.71 18.3147 125.837 18.8979 126.089 19.3235C126.341 19.749 126.79 19.9618 127.436 19.9618H128.879C129.036 19.9618 129.166 20.0131 129.269 20.1155C129.371 20.218 129.422 20.348 129.422 20.5056V21.3567C129.422 21.5144 129.371 21.6444 129.269 21.7468ZM74.3566 21.652C73.6079 21.9752 72.6819 22.1367 71.5786 22.1367C70.6959 22.1367 69.9393 22.0264 69.3089 21.8057C68.6784 21.5851 68.1662 21.3171 67.7721 21.0019C67.3781 20.6866 67.0825 20.3714 66.8855 20.0562C66.6885 19.7409 66.5821 19.4888 66.5663 19.2996C66.5506 19.1262 66.6058 18.9923 66.7318 18.8977C66.8579 18.8031 66.984 18.7558 67.1101 18.7558H68.1504C68.245 18.7558 68.3198 18.7677 68.375 18.7913C68.4302 18.8149 68.505 18.8819 68.5996 18.9923C68.8045 19.2129 69.0331 19.4336 69.2852 19.6543C69.5374 19.8749 69.8487 20.0562 70.2191 20.198C70.5895 20.3399 71.0505 20.4108 71.6022 20.4108C72.406 20.4108 73.068 20.2571 73.5882 19.9498C74.1083 19.6424 74.3684 19.1893 74.3684 18.5903C74.3684 18.1963 74.262 17.8811 74.0492 17.6446C73.8364 17.4082 73.4581 17.1954 72.9144 17.0063C72.3706 16.8172 71.6258 16.6201 70.6801 16.4152C69.7344 16.1946 68.9858 15.9227 68.4341 15.5996C67.8824 15.2764 67.4884 14.8903 67.252 14.4411C67.0156 13.9919 66.8973 13.4836 66.8973 12.9161C66.8973 12.333 67.0707 11.7695 67.4175 11.2257C67.7642 10.6819 68.2725 10.2367 68.9424 9.8899C69.6123 9.54314 70.4516 9.36976 71.4603 9.36976C72.28 9.36976 72.9814 9.47221 73.5645 9.67711C74.1477 9.88201 74.6284 10.1381 75.0067 10.4455C75.385 10.7528 75.6687 11.0563 75.8579 11.3557C76.047 11.6552 76.1494 11.9074 76.1652 12.1123C76.181 12.2699 76.1337 12.3999 76.0234 12.5024C75.913 12.6048 75.7869 12.6561 75.6451 12.6561H74.6521C74.5418 12.6561 74.4511 12.6324 74.3802 12.5851C74.3093 12.5379 74.2423 12.4827 74.1792 12.4196C74.0216 12.2147 73.8364 12.0098 73.6236 11.8049C73.4109 11.6 73.135 11.4306 72.7962 11.2966C72.4573 11.1627 72.012 11.0957 71.4603 11.0957C70.6723 11.0957 70.0812 11.2612 69.6872 11.5922C69.2931 11.9232 69.0961 12.3408 69.0961 12.8452C69.0961 13.1447 69.1828 13.4126 69.3562 13.6491C69.5295 13.8855 69.8605 14.0983 70.3492 14.2874C70.8378 14.4765 71.5628 14.6814 72.5243 14.9021C73.5645 15.107 74.3841 15.3828 74.9831 15.7296C75.582 16.0764 76.0076 16.4783 76.2598 16.9354C76.512 17.3925 76.6381 17.9205 76.6381 18.5194C76.6381 19.1814 76.445 19.7882 76.0588 20.3399C75.6727 20.8915 75.1052 21.3289 74.3566 21.652ZM81.458 21.7469C81.3556 21.8493 81.2256 21.9005 81.0679 21.9005H79.9331C79.7755 21.9005 79.6454 21.8493 79.543 21.7469C79.4405 21.6444 79.3893 21.5144 79.3893 21.3568V10.1502C79.3893 9.9926 79.4405 9.86256 79.543 9.76011C79.6454 9.65766 79.7755 9.60644 79.9331 9.60644H80.997C81.1546 9.60644 81.2847 9.65766 81.3871 9.76011C81.4896 9.86256 81.5408 9.9926 81.5408 10.1502V10.9777C81.9033 10.4891 82.3604 10.099 82.9121 9.8074C83.4637 9.51581 84.1257 9.37001 84.898 9.37001C86.6791 9.35425 87.94 10.0793 88.6808 11.5451C89.0434 10.8831 89.5714 10.3551 90.2649 9.96107C90.9584 9.56703 91.7465 9.37001 92.6291 9.37001C93.4487 9.37001 94.1935 9.55915 94.8633 9.93743C95.5332 10.3157 96.0612 10.8871 96.4474 11.6515C96.8336 12.416 97.0266 13.3735 97.0266 14.5241V21.3568C97.0266 21.5144 96.9754 21.6444 96.873 21.7469C96.7705 21.8493 96.6405 21.9005 96.4829 21.9005H95.3717C95.214 21.9005 95.084 21.8493 94.9816 21.7469C94.8791 21.6444 94.8279 21.5144 94.8279 21.3568V14.7369C94.8279 13.8542 94.7018 13.1607 94.4496 12.6563C94.1974 12.1519 93.8585 11.7973 93.433 11.5924C93.0074 11.3875 92.5424 11.2851 92.0381 11.2851C91.6283 11.2851 91.2106 11.3875 90.785 11.5924C90.3594 11.7973 90.0088 12.1519 89.7329 12.6563C89.4571 13.1607 89.3192 13.8542 89.3192 14.7369V21.3568C89.3192 21.5144 89.268 21.6444 89.1655 21.7469C89.0631 21.8493 88.933 21.9005 88.7754 21.9005H87.6642C87.5066 21.9005 87.3766 21.8493 87.2741 21.7469C87.1717 21.6444 87.1204 21.5144 87.1204 21.3568V14.7369C87.1204 13.8542 86.9865 13.1607 86.7185 12.6563C86.4506 12.1519 86.1038 11.7973 85.6782 11.5924C85.2527 11.3875 84.8035 11.2851 84.3306 11.2851C83.9208 11.2851 83.5031 11.3875 83.0776 11.5924C82.652 11.7973 82.3013 12.1519 82.0255 12.6563C81.7496 13.1607 81.6117 13.8463 81.6117 14.7132V21.3568C81.6117 21.5144 81.5605 21.6444 81.458 21.7469ZM103.841 22.1367C104.598 22.1367 105.236 22.0461 105.757 21.8648C106.277 21.6836 106.71 21.455 107.057 21.1792C107.404 20.9034 107.679 20.6236 107.884 20.3399V21.3565C107.884 21.5141 107.932 21.6442 108.026 21.7466C108.121 21.8491 108.255 21.9003 108.428 21.9003H109.516C109.673 21.9003 109.803 21.8491 109.906 21.7466C110.008 21.6442 110.059 21.5141 110.059 21.3565V13.6963C110.059 13.1604 109.977 12.6324 109.811 12.1123C109.646 11.5922 109.378 11.1272 109.007 10.7174C108.637 10.3076 108.129 9.98053 107.482 9.73622C106.836 9.49191 106.04 9.36976 105.095 9.36976C104.243 9.36976 103.522 9.48403 102.931 9.71258C102.34 9.94112 101.855 10.2209 101.477 10.5519C101.099 10.8829 100.819 11.2218 100.638 11.5685C100.457 11.9153 100.366 12.2069 100.366 12.4433C100.366 12.5851 100.409 12.7073 100.496 12.8097C100.583 12.9122 100.713 12.9634 100.886 12.9634H101.95C102.186 12.9634 102.352 12.8452 102.447 12.6088C102.62 12.1675 102.923 11.8049 103.357 11.5212C103.79 11.2375 104.362 11.0957 105.071 11.0957C106.048 11.0957 106.753 11.3084 107.187 11.734C107.62 12.1596 107.837 12.7506 107.837 13.5072V14.1928L104.314 14.6893C102.896 14.8942 101.745 15.3198 100.863 15.966C99.9799 16.6123 99.5385 17.4791 99.5385 18.5667C99.5385 19.2445 99.7355 19.8513 100.13 20.3872C100.524 20.9231 101.044 21.3486 101.69 21.6639C102.336 21.9791 103.053 22.1367 103.841 22.1367ZM103.097 20.1509C103.499 20.2928 103.912 20.3637 104.338 20.3637C104.984 20.3637 105.575 20.2258 106.111 19.9499C106.647 19.6741 107.069 19.2446 107.376 18.6614C107.683 18.0782 107.837 17.3453 107.837 16.4627V15.8007L105.094 16.2026C103.975 16.3602 103.132 16.6242 102.565 16.9946C101.997 17.365 101.714 17.8339 101.714 18.4014C101.714 18.8427 101.844 19.2091 102.104 19.5007C102.364 19.7923 102.695 20.009 103.097 20.1509ZM115.169 21.9003C115.327 21.9003 115.461 21.8491 115.571 21.7466C115.681 21.6442 115.736 21.5142 115.736 21.3565V14.4056C115.736 13.5545 115.981 12.8807 116.469 12.3842C116.958 11.8877 117.628 11.6395 118.479 11.6395H119.898C120.055 11.6395 120.181 11.5922 120.276 11.4976C120.37 11.403 120.418 11.277 120.418 11.1193V10.15C120.418 9.99238 120.37 9.86234 120.276 9.75989C120.181 9.65744 120.055 9.60622 119.898 9.60622H118.952C118.18 9.60622 117.518 9.74019 116.966 10.0081C116.414 10.2761 115.981 10.678 115.666 11.2139V10.1736C115.666 10.016 115.61 9.88205 115.5 9.77171C115.39 9.66138 115.256 9.60622 115.098 9.60622H114.011C113.853 9.60622 113.723 9.66138 113.62 9.77171C113.518 9.88205 113.467 10.016 113.467 10.1736V21.3565C113.467 21.5142 113.518 21.6442 113.62 21.7466C113.723 21.8491 113.853 21.9003 114.011 21.9003H115.169ZM139.161 21.9005C139.319 21.9005 139.449 21.8493 139.552 21.7469C139.654 21.6444 139.705 21.5144 139.705 21.3568V14.7132C139.705 13.8463 139.843 13.1607 140.119 12.6563C140.395 12.1519 140.745 11.7973 141.171 11.5924C141.597 11.3875 142.014 11.2851 142.424 11.2851C142.897 11.2851 143.346 11.3875 143.772 11.5924C144.197 11.7973 144.544 12.1519 144.812 12.6563C145.08 13.1607 145.214 13.8542 145.214 14.7369V21.3568C145.214 21.5144 145.265 21.6444 145.368 21.7469C145.47 21.8493 145.6 21.9005 145.758 21.9005H146.869C147.026 21.9005 147.157 21.8493 147.259 21.7469C147.361 21.6444 147.413 21.5144 147.413 21.3568V14.7369C147.413 13.8542 147.551 13.1607 147.826 12.6563C148.102 12.1519 148.453 11.7973 148.878 11.5924C149.304 11.3875 149.722 11.2851 150.132 11.2851C150.636 11.2851 151.101 11.3875 151.526 11.5924C151.952 11.7973 152.291 12.1519 152.543 12.6563C152.795 13.1607 152.921 13.8542 152.921 14.7369V21.3568C152.921 21.5144 152.973 21.6444 153.075 21.7469C153.177 21.8493 153.308 21.9005 153.465 21.9005H154.576C154.734 21.9005 154.864 21.8493 154.966 21.7469C155.069 21.6444 155.12 21.5144 155.12 21.3568V14.5241C155.12 13.3735 154.927 12.416 154.541 11.6515C154.155 10.8871 153.627 10.3157 152.957 9.93743C152.287 9.55915 151.542 9.37001 150.723 9.37001C149.84 9.37001 149.052 9.56703 148.358 9.96107C147.665 10.3551 147.137 10.8831 146.774 11.5451C146.034 10.0793 144.773 9.35425 142.992 9.37001C142.219 9.37001 141.557 9.51581 141.006 9.8074C140.454 10.099 139.997 10.4891 139.634 10.9777V10.1502C139.634 9.9926 139.583 9.86256 139.481 9.76011C139.378 9.65766 139.248 9.60644 139.09 9.60644H138.027C137.869 9.60644 137.739 9.65766 137.636 9.76011C137.534 9.86256 137.483 9.9926 137.483 10.1502V21.3568C137.483 21.5144 137.534 21.6444 137.636 21.7469C137.739 21.8493 137.869 21.9005 138.027 21.9005H139.161ZM166.545 21.4511C165.741 21.9082 164.741 22.1367 163.543 22.1367C162.345 22.1367 161.344 21.9082 160.54 21.4511C159.736 20.994 159.121 20.3596 158.696 19.5479C158.27 18.7361 158.034 17.8101 157.987 16.7699C157.971 16.5019 157.963 16.1591 157.963 15.7414C157.963 15.3237 157.971 14.9888 157.987 14.7366C158.034 13.6806 158.274 12.7506 158.708 11.9468C159.141 11.1429 159.76 10.5125 160.564 10.0554C161.368 9.5983 162.361 9.36976 163.543 9.36976C164.725 9.36976 165.718 9.5983 166.522 10.0554C167.325 10.5125 167.944 11.1429 168.378 11.9468C168.811 12.7506 169.051 13.6806 169.099 14.7366C169.114 14.9888 169.122 15.3237 169.122 15.7414C169.122 16.1591 169.114 16.5019 169.099 16.7699C169.051 17.8101 168.815 18.7361 168.389 19.5479C167.964 20.3596 167.349 20.994 166.545 21.4511ZM163.543 20.3162C162.565 20.3162 161.781 20.0049 161.19 19.3823C160.599 18.7597 160.288 17.8495 160.256 16.6516C160.241 16.4152 160.233 16.1157 160.233 15.7532C160.233 15.3906 160.241 15.0912 160.256 14.8548C160.288 13.6569 160.599 12.7466 161.19 12.124C161.781 11.5015 162.565 11.1902 163.543 11.1902C164.52 11.1902 165.3 11.5015 165.883 12.124C166.466 12.7466 166.782 13.6569 166.829 14.8548C166.845 15.0912 166.853 15.3906 166.853 15.7532C166.853 16.1157 166.845 16.4152 166.829 16.6516C166.782 17.8495 166.466 18.7597 165.883 19.3823C165.3 20.0049 164.52 20.3162 163.543 20.3162ZM180.406 21.6759C179.783 21.9833 179.03 22.1369 178.148 22.1369C177.202 22.1369 176.414 21.9675 175.783 21.6286C175.153 21.2897 174.649 20.8681 174.27 20.3638V21.3567C174.27 21.5144 174.219 21.6444 174.117 21.7468C174.014 21.8493 173.884 21.9005 173.727 21.9005H172.639C172.481 21.9005 172.351 21.8493 172.249 21.7468C172.146 21.6444 172.095 21.5144 172.095 21.3567V5.65811C172.095 5.50049 172.146 5.37046 172.249 5.26801C172.351 5.16556 172.481 5.11433 172.639 5.11433H173.774C173.947 5.11433 174.081 5.16556 174.176 5.26801C174.27 5.37046 174.318 5.50049 174.318 5.65811V11.0959C174.712 10.6073 175.22 10.1975 175.843 9.86648C176.465 9.53548 177.234 9.36998 178.148 9.36998C179.03 9.36998 179.783 9.52366 180.406 9.83101C181.028 10.1384 181.54 10.56 181.942 11.0959C182.344 11.6318 182.648 12.2386 182.853 12.9164C183.057 13.5941 183.168 14.3034 183.184 15.0442C183.199 15.2964 183.207 15.5328 183.207 15.7535C183.207 15.9741 183.199 16.2106 183.184 16.4627C183.168 17.2193 183.057 17.9365 182.853 18.6142C182.648 19.292 182.344 19.8948 181.942 20.4229C181.54 20.9509 181.028 21.3686 180.406 21.6759ZM177.651 20.2218C176.879 20.2218 176.252 20.0405 175.772 19.678C175.291 19.3155 174.936 18.8544 174.708 18.2949C174.479 17.7354 174.349 17.164 174.318 16.5808C174.302 16.3286 174.294 16.0252 174.294 15.6706C174.294 15.316 174.302 15.0125 174.318 14.7604C174.333 14.2087 174.463 13.6649 174.708 13.129C174.952 12.5931 175.318 12.1518 175.807 11.805C176.296 11.4583 176.91 11.2849 177.651 11.2849C178.471 11.2849 179.113 11.4622 179.578 11.8169C180.043 12.1715 180.378 12.6365 180.583 13.2118C180.788 13.7871 180.906 14.4057 180.938 15.0677C180.953 15.5248 180.953 15.9819 180.938 16.439C180.906 17.101 180.788 17.7196 180.583 18.2949C180.378 18.8702 180.043 19.3352 179.578 19.6898C179.113 20.0445 178.471 20.2218 177.651 20.2218ZM187.822 21.9003C187.979 21.9003 188.106 21.8491 188.2 21.7466C188.295 21.6442 188.342 21.5142 188.342 21.3565V10.15C188.342 9.99238 188.295 9.86234 188.2 9.75989C188.106 9.65744 187.979 9.60622 187.822 9.60622H186.687C186.529 9.60622 186.399 9.65744 186.297 9.75989C186.194 9.86234 186.143 9.99238 186.143 10.15V21.3565C186.143 21.5142 186.194 21.6442 186.297 21.7466C186.399 21.8491 186.529 21.9003 186.687 21.9003H187.822ZM193.939 21.7468C193.845 21.8493 193.711 21.9005 193.537 21.9005H192.426C192.268 21.9005 192.138 21.8493 192.036 21.7468C191.933 21.6444 191.882 21.5144 191.882 21.3567V5.65811C191.882 5.50049 191.933 5.37046 192.036 5.26801C192.138 5.16556 192.268 5.11433 192.426 5.11433H193.537C193.711 5.11433 193.845 5.16556 193.939 5.26801C194.034 5.37046 194.081 5.50049 194.081 5.65811V21.3567C194.081 21.5144 194.034 21.6444 193.939 21.7468ZM202.506 22.1367C203.326 22.1367 204.051 22.0303 204.682 21.8175C205.312 21.6048 205.848 21.3329 206.289 21.0019C206.731 20.6709 207.069 20.3359 207.306 19.9971C207.542 19.6582 207.668 19.3705 207.684 19.1341C207.7 18.9765 207.657 18.8543 207.554 18.7677C207.452 18.681 207.322 18.6376 207.164 18.6376H206.029C205.856 18.6376 205.73 18.6573 205.651 18.6967C205.572 18.7361 205.462 18.8583 205.32 19.0632C205.241 19.1735 205.084 19.3351 204.847 19.5479C204.611 19.7606 204.303 19.9537 203.925 20.1271C203.547 20.3005 203.074 20.3872 202.506 20.3872C201.844 20.3872 201.277 20.2138 200.804 19.867C200.331 19.5203 199.969 19.0671 199.717 18.5076C199.464 17.9481 199.323 17.3452 199.291 16.6989V16.4862H207.471C207.629 16.4862 207.759 16.4389 207.861 16.3443C207.964 16.2497 208.015 16.1158 208.015 15.9424V15.5405C208.015 14.2953 207.802 13.2077 207.377 12.2778C206.951 11.3479 206.333 10.6307 205.521 10.1263C204.709 9.62195 203.704 9.36976 202.506 9.36976C201.435 9.36976 200.501 9.5983 199.705 10.0554C198.909 10.5125 198.282 11.1627 197.825 12.0059C197.368 12.8492 197.108 13.8303 197.045 14.9494C197.029 15.1543 197.021 15.4183 197.021 15.7414C197.021 16.0645 197.029 16.3285 197.045 16.5334C197.14 18.2672 197.668 19.6346 198.629 20.6354C199.591 21.6363 200.883 22.1367 202.506 22.1367ZM199.291 14.855H205.769V14.784C205.769 14.0748 205.639 13.4443 205.379 12.8926C205.119 12.341 204.745 11.9036 204.256 11.5805C203.767 11.2574 203.184 11.0958 202.507 11.0958C201.829 11.0958 201.25 11.2574 200.769 11.5805C200.288 11.9036 199.922 12.341 199.669 12.8926C199.417 13.4443 199.291 14.0748 199.291 14.784V14.855Z" fill="black"/>
<path fill-rule="evenodd" clip-rule="evenodd" d="M188.377 7.15931C188.275 7.26176 188.145 7.31298 187.987 7.31298H186.498C186.34 7.31298 186.21 7.26176 186.108 7.15931C186.005 7.05685 185.954 6.92682 185.954 6.7692V5.49251C185.954 5.33489 186.005 5.20486 186.108 5.10241C186.21 4.99996 186.34 4.94873 186.498 4.94873H187.987C188.145 4.94873 188.275 4.99996 188.377 5.10241C188.48 5.20486 188.531 5.33489 188.531 5.49251V6.7692C188.531 6.92682 188.48 7.05685 188.377 7.15931ZM129.269 21.7468C129.166 21.8493 129.036 21.9005 128.879 21.9005H127.247C126.365 21.9005 125.647 21.7311 125.096 21.3922C124.544 21.0533 124.142 20.5726 123.89 19.95C123.638 19.3274 123.512 18.5906 123.512 17.7394V11.4978H121.668C121.51 11.4978 121.38 11.4466 121.277 11.3441C121.175 11.2417 121.124 11.1116 121.124 10.954V10.1502C121.124 9.99257 121.175 9.86254 121.277 9.76008C121.38 9.65763 121.51 9.60641 121.668 9.60641H123.512V5.65811C123.512 5.50049 123.563 5.37046 123.665 5.26801C123.768 5.16556 123.898 5.11433 124.055 5.11433H125.167C125.324 5.11433 125.454 5.16556 125.557 5.26801C125.659 5.37046 125.71 5.50049 125.71 5.65811V9.60641H128.642C128.8 9.60641 128.93 9.65763 129.032 9.76008C129.135 9.86254 129.186 9.99257 129.186 10.1502V10.954C129.186 11.1116 129.135 11.2417 129.032 11.3441C128.93 11.4466 128.8 11.4978 128.642 11.4978H125.71V17.5739C125.71 18.3147 125.837 18.8979 126.089 19.3235C126.341 19.749 126.79 19.9618 127.436 19.9618H128.879C129.036 19.9618 129.166 20.0131 129.269 20.1155C129.371 20.218 129.422 20.348 129.422 20.5056V21.3567C129.422 21.5144 129.371 21.6444 129.269 21.7468ZM74.3566 21.652C73.6079 21.9752 72.6819 22.1367 71.5786 22.1367C70.6959 22.1367 69.9393 22.0264 69.3089 21.8057C68.6784 21.5851 68.1662 21.3171 67.7721 21.0019C67.3781 20.6866 67.0825 20.3714 66.8855 20.0562C66.6885 19.7409 66.5821 19.4888 66.5663 19.2996C66.5506 19.1262 66.6058 18.9923 66.7318 18.8977C66.8579 18.8031 66.984 18.7558 67.1101 18.7558H68.1504C68.245 18.7558 68.3198 18.7677 68.375 18.7913C68.4302 18.8149 68.505 18.8819 68.5996 18.9923C68.8045 19.2129 69.0331 19.4336 69.2852 19.6543C69.5374 19.8749 69.8487 20.0562 70.2191 20.198C70.5895 20.3399 71.0505 20.4108 71.6022 20.4108C72.406 20.4108 73.068 20.2571 73.5882 19.9498C74.1083 19.6424 74.3684 19.1893 74.3684 18.5903C74.3684 18.1963 74.262 17.8811 74.0492 17.6446C73.8364 17.4082 73.4581 17.1954 72.9144 17.0063C72.3706 16.8172 71.6258 16.6201 70.6801 16.4152C69.7344 16.1946 68.9858 15.9227 68.4341 15.5996C67.8824 15.2764 67.4884 14.8903 67.252 14.4411C67.0156 13.9919 66.8973 13.4836 66.8973 12.9161C66.8973 12.333 67.0707 11.7695 67.4175 11.2257C67.7642 10.6819 68.2725 10.2367 68.9424 9.8899C69.6123 9.54314 70.4516 9.36976 71.4603 9.36976C72.28 9.36976 72.9814 9.47221 73.5645 9.67711C74.1477 9.88201 74.6284 10.1381 75.0067 10.4455C75.385 10.7528 75.6687 11.0563 75.8579 11.3557C76.047 11.6552 76.1494 11.9074 76.1652 12.1123C76.181 12.2699 76.1337 12.3999 76.0234 12.5024C75.913 12.6048 75.7869 12.6561 75.6451 12.6561H74.6521C74.5418 12.6561 74.4511 12.6324 74.3802 12.5851C74.3093 12.5379 74.2423 12.4827 74.1792 12.4196C74.0216 12.2147 73.8364 12.0098 73.6236 11.8049C73.4109 11.6 73.135 11.4306 72.7962 11.2966C72.4573 11.1627 72.012 11.0957 71.4603 11.0957C70.6723 11.0957 70.0812 11.2612 69.6872 11.5922C69.2931 11.9232 69.0961 12.3408 69.0961 12.8452C69.0961 13.1447 69.1828 13.4126 69.3562 13.6491C69.5295 13.8855 69.8605 14.0983 70.3492 14.2874C70.8378 14.4765 71.5628 14.6814 72.5243 14.9021C73.5645 15.107 74.3841 15.3828 74.9831 15.7296C75.582 16.0764 76.0076 16.4783 76.2598 16.9354C76.512 17.3925 76.6381 17.9205 76.6381 18.5194C76.6381 19.1814 76.445 19.7882 76.0588 20.3399C75.6727 20.8915 75.1052 21.3289 74.3566 21.652ZM81.458 21.7469C81.3556 21.8493 81.2256 21.9005 81.0679 21.9005H79.9331C79.7755 21.9005 79.6454 21.8493 79.543 21.7469C79.4405 21.6444 79.3893 21.5144 79.3893 21.3568V10.1502C79.3893 9.9926 79.4405 9.86256 79.543 9.76011C79.6454 9.65766 79.7755 9.60644 79.9331 9.60644H80.997C81.1546 9.60644 81.2847 9.65766 81.3871 9.76011C81.4896 9.86256 81.5408 9.9926 81.5408 10.1502V10.9777C81.9033 10.4891 82.3604 10.099 82.9121 9.8074C83.4637 9.51581 84.1257 9.37001 84.898 9.37001C86.6791 9.35425 87.94 10.0793 88.6808 11.5451C89.0434 10.8831 89.5714 10.3551 90.2649 9.96107C90.9584 9.56703 91.7465 9.37001 92.6291 9.37001C93.4487 9.37001 94.1935 9.55915 94.8633 9.93743C95.5332 10.3157 96.0612 10.8871 96.4474 11.6515C96.8336 12.416 97.0266 13.3735 97.0266 14.5241V21.3568C97.0266 21.5144 96.9754 21.6444 96.873 21.7469C96.7705 21.8493 96.6405 21.9005 96.4829 21.9005H95.3717C95.214 21.9005 95.084 21.8493 94.9816 21.7469C94.8791 21.6444 94.8279 21.5144 94.8279 21.3568V14.7369C94.8279 13.8542 94.7018 13.1607 94.4496 12.6563C94.1974 12.1519 93.8585 11.7973 93.433 11.5924C93.0074 11.3875 92.5424 11.2851 92.0381 11.2851C91.6283 11.2851 91.2106 11.3875 90.785 11.5924C90.3594 11.7973 90.0088 12.1519 89.7329 12.6563C89.4571 13.1607 89.3192 13.8542 89.3192 14.7369V21.3568C89.3192 21.5144 89.268 21.6444 89.1655 21.7469C89.0631 21.8493 88.933 21.9005 88.7754 21.9005H87.6642C87.5066 21.9005 87.3766 21.8493 87.2741 21.7469C87.1717 21.6444 87.1204 21.5144 87.1204 21.3568V14.7369C87.1204 13.8542 86.9865 13.1607 86.7185 12.6563C86.4506 12.1519 86.1038 11.7973 85.6782 11.5924C85.2527 11.3875 84.8035 11.2851 84.3306 11.2851C83.9208 11.2851 83.5031 11.3875 83.0776 11.5924C82.652 11.7973 82.3013 12.1519 82.0255 12.6563C81.7496 13.1607 81.6117 13.8463 81.6117 14.7132V21.3568C81.6117 21.5144 81.5605 21.6444 81.458 21.7469ZM103.841 22.1367C104.598 22.1367 105.236 22.0461 105.757 21.8648C106.277 21.6836 106.71 21.455 107.057 21.1792C107.404 20.9034 107.679 20.6236 107.884 20.3399V21.3565C107.884 21.5141 107.932 21.6442 108.026 21.7466C108.121 21.8491 108.255 21.9003 108.428 21.9003H109.516C109.673 21.9003 109.803 21.8491 109.906 21.7466C110.008 21.6442 110.059 21.5141 110.059 21.3565V13.6963C110.059 13.1604 109.977 12.6324 109.811 12.1123C109.646 11.5922 109.378 11.1272 109.007 10.7174C108.637 10.3076 108.129 9.98053 107.482 9.73622C106.836 9.49191 106.04 9.36976 105.095 9.36976C104.243 9.36976 103.522 9.48403 102.931 9.71258C102.34 9.94112 101.855 10.2209 101.477 10.5519C101.099 10.8829 100.819 11.2218 100.638 11.5685C100.457 11.9153 100.366 12.2069 100.366 12.4433C100.366 12.5851 100.409 12.7073 100.496 12.8097C100.583 12.9122 100.713 12.9634 100.886 12.9634H101.95C102.186 12.9634 102.352 12.8452 102.447 12.6088C102.62 12.1675 102.923 11.8049 103.357 11.5212C103.79 11.2375 104.362 11.0957 105.071 11.0957C106.048 11.0957 106.753 11.3084 107.187 11.734C107.62 12.1596 107.837 12.7506 107.837 13.5072V14.1928L104.314 14.6893C102.896 14.8942 101.745 15.3198 100.863 15.966C99.9799 16.6123 99.5385 17.4791 99.5385 18.5667C99.5385 19.2445 99.7355 19.8513 100.13 20.3872C100.524 20.9231 101.044 21.3486 101.69 21.6639C102.336 21.9791 103.053 22.1367 103.841 22.1367ZM103.097 20.1509C103.499 20.2928 103.912 20.3637 104.338 20.3637C104.984 20.3637 105.575 20.2258 106.111 19.9499C106.647 19.6741 107.069 19.2446 107.376 18.6614C107.683 18.0782 107.837 17.3453 107.837 16.4627V15.8007L105.094 16.2026C103.975 16.3602 103.132 16.6242 102.565 16.9946C101.997 17.365 101.714 17.8339 101.714 18.4014C101.714 18.8427 101.844 19.2091 102.104 19.5007C102.364 19.7923 102.695 20.009 103.097 20.1509ZM115.169 21.9003C115.327 21.9003 115.461 21.8491 115.571 21.7466C115.681 21.6442 115.736 21.5142 115.736 21.3565V14.4056C115.736 13.5545 115.981 12.8807 116.469 12.3842C116.958 11.8877 117.628 11.6395 118.479 11.6395H119.898C120.055 11.6395 120.181 11.5922 120.276 11.4976C120.37 11.403 120.418 11.277 120.418 11.1193V10.15C120.418 9.99238 120.37 9.86234 120.276 9.75989C120.181 9.65744 120.055 9.60622 119.898 9.60622H118.952C118.18 9.60622 117.518 9.74019 116.966 10.0081C116.414 10.2761 115.981 10.678 115.666 11.2139V10.1736C115.666 10.016 115.61 9.88205 115.5 9.77171C115.39 9.66138 115.256 9.60622 115.098 9.60622H114.011C113.853 9.60622 113.723 9.66138 113.62 9.77171C113.518 9.88205 113.467 10.016 113.467 10.1736V21.3565C113.467 21.5142 113.518 21.6442 113.62 21.7466C113.723 21.8491 113.853 21.9003 114.011 21.9003H115.169ZM139.161 21.9005C139.319 21.9005 139.449 21.8493 139.552 21.7469C139.654 21.6444 139.705 21.5144 139.705 21.3568V14.7132C139.705 13.8463 139.843 13.1607 140.119 12.6563C140.395 12.1519 140.745 11.7973 141.171 11.5924C141.597 11.3875 142.014 11.2851 142.424 11.2851C142.897 11.2851 143.346 11.3875 143.772 11.5924C144.197 11.7973 144.544 12.1519 144.812 12.6563C145.08 13.1607 145.214 13.8542 145.214 14.7369V21.3568C145.214 21.5144 145.265 21.6444 145.368 21.7469C145.47 21.8493 145.6 21.9005 145.758 21.9005H146.869C147.026 21.9005 147.157 21.8493 147.259 21.7469C147.361 21.6444 147.413 21.5144 147.413 21.3568V14.7369C147.413 13.8542 147.551 13.1607 147.826 12.6563C148.102 12.1519 148.453 11.7973 148.878 11.5924C149.304 11.3875 149.722 11.2851 150.132 11.2851C150.636 11.2851 151.101 11.3875 151.526 11.5924C151.952 11.7973 152.291 12.1519 152.543 12.6563C152.795 13.1607 152.921 13.8542 152.921 14.7369V21.3568C152.921 21.5144 152.973 21.6444 153.075 21.7469C153.177 21.8493 153.308 21.9005 153.465 21.9005H154.576C154.734 21.9005 154.864 21.8493 154.966 21.7469C155.069 21.6444 155.12 21.5144 155.12 21.3568V14.5241C155.12 13.3735 154.927 12.416 154.541 11.6515C154.155 10.8871 153.627 10.3157 152.957 9.93743C152.287 9.55915 151.542 9.37001 150.723 9.37001C149.84 9.37001 149.052 9.56703 148.358 9.96107C147.665 10.3551 147.137 10.8831 146.774 11.5451C146.034 10.0793 144.773 9.35425 142.992 9.37001C142.219 9.37001 141.557 9.51581 141.006 9.8074C140.454 10.099 139.997 10.4891 139.634 10.9777V10.1502C139.634 9.9926 139.583 9.86256 139.481 9.76011C139.378 9.65766 139.248 9.60644 139.09 9.60644H138.027C137.869 9.60644 137.739 9.65766 137.636 9.76011C137.534 9.86256 137.483 9.9926 137.483 10.1502V21.3568C137.483 21.5144 137.534 21.6444 137.636 21.7469C137.739 21.8493 137.869 21.9005 138.027 21.9005H139.161ZM166.545 21.4511C165.741 21.9082 164.741 22.1367 163.543 22.1367C162.345 22.1367 161.344 21.9082 160.54 21.4511C159.736 20.994 159.121 20.3596 158.696 19.5479C158.27 18.7361 158.034 17.8101 157.987 16.7699C157.971 16.5019 157.963 16.1591 157.963 15.7414C157.963 15.3237 157.971 14.9888 157.987 14.7366C158.034 13.6806 158.274 12.7506 158.708 11.9468C159.141 11.1429 159.76 10.5125 160.564 10.0554C161.368 9.5983 162.361 9.36976 163.543 9.36976C164.725 9.36976 165.718 9.5983 166.522 10.0554C167.325 10.5125 167.944 11.1429 168.378 11.9468C168.811 12.7506 169.051 13.6806 169.099 14.7366C169.114 14.9888 169.122 15.3237 169.122 15.7414C169.122 16.1591 169.114 16.5019 169.099 16.7699C169.051 17.8101 168.815 18.7361 168.389 19.5479C167.964 20.3596 167.349 20.994 166.545 21.4511ZM163.543 20.3162C162.565 20.3162 161.781 20.0049 161.19 19.3823C160.599 18.7597 160.288 17.8495 160.256 16.6516C160.241 16.4152 160.233 16.1157 160.233 15.7532C160.233 15.3906 160.241 15.0912 160.256 14.8548C160.288 13.6569 160.599 12.7466 161.19 12.124C161.781 11.5015 162.565 11.1902 163.543 11.1902C164.52 11.1902 165.3 11.5015 165.883 12.124C166.466 12.7466 166.782 13.6569 166.829 14.8548C166.845 15.0912 166.853 15.3906 166.853 15.7532C166.853 16.1157 166.845 16.4152 166.829 16.6516C166.782 17.8495 166.466 18.7597 165.883 19.3823C165.3 20.0049 164.52 20.3162 163.543 20.3162ZM180.406 21.6759C179.783 21.9833 179.03 22.1369 178.148 22.1369C177.202 22.1369 176.414 21.9675 175.783 21.6286C175.153 21.2897 174.649 20.8681 174.27 20.3638V21.3567C174.27 21.5144 174.219 21.6444 174.117 21.7468C174.014 21.8493 173.884 21.9005 173.727 21.9005H172.639C172.481 21.9005 172.351 21.8493 172.249 21.7468C172.146 21.6444 172.095 21.5144 172.095 21.3567V5.65811C172.095 5.50049 172.146 5.37046 172.249 5.26801C172.351 5.16556 172.481 5.11433 172.639 5.11433H173.774C173.947 5.11433 174.081 5.16556 174.176 5.26801C174.27 5.37046 174.318 5.50049 174.318 5.65811V11.0959C174.712 10.6073 175.22 10.1975 175.843 9.86648C176.465 9.53548 177.234 9.36998 178.148 9.36998C179.03 9.36998 179.783 9.52366 180.406 9.83101C181.028 10.1384 181.54 10.56 181.942 11.0959C182.344 11.6318 182.648 12.2386 182.853 12.9164C183.057 13.5941 183.168 14.3034 183.184 15.0442C183.199 15.2964 183.207 15.5328 183.207 15.7535C183.207 15.9741 183.199 16.2106 183.184 16.4627C183.168 17.2193 183.057 17.9365 182.853 18.6142C182.648 19.292 182.344 19.8948 181.942 20.4229C181.54 20.9509 181.028 21.3686 180.406 21.6759ZM177.651 20.2218C176.879 20.2218 176.252 20.0405 175.772 19.678C175.291 19.3155 174.936 18.8544 174.708 18.2949C174.479 17.7354 174.349 17.164 174.318 16.5808C174.302 16.3286 174.294 16.0252 174.294 15.6706C174.294 15.316 174.302 15.0125 174.318 14.7604C174.333 14.2087 174.463 13.6649 174.708 13.129C174.952 12.5931 175.318 12.1518 175.807 11.805C176.296 11.4583 176.91 11.2849 177.651 11.2849C178.471 11.2849 179.113 11.4622 179.578 11.8169C180.043 12.1715 180.378 12.6365 180.583 13.2118C180.788 13.7871 180.906 14.4057 180.938 15.0677C180.953 15.5248 180.953 15.9819 180.938 16.439C180.906 17.101 180.788 17.7196 180.583 18.2949C180.378 18.8702 180.043 19.3352 179.578 19.6898C179.113 20.0445 178.471 20.2218 177.651 20.2218ZM187.822 21.9003C187.979 21.9003 188.106 21.8491 188.2 21.7466C188.295 21.6442 188.342 21.5142 188.342 21.3565V10.15C188.342 9.99238 188.295 9.86234 188.2 9.75989C188.106 9.65744 187.979 9.60622 187.822 9.60622H186.687C186.529 9.60622 186.399 9.65744 186.297 9.75989C186.194 9.86234 186.143 9.99238 186.143 10.15V21.3565C186.143 21.5142 186.194 21.6442 186.297 21.7466C186.399 21.8491 186.529 21.9003 186.687 21.9003H187.822ZM193.939 21.7468C193.845 21.8493 193.711 21.9005 193.537 21.9005H192.426C192.268 21.9005 192.138 21.8493 192.036 21.7468C191.933 21.6444 191.882 21.5144 191.882 21.3567V5.65811C191.882 5.50049 191.933 5.37046 192.036 5.26801C192.138 5.16556 192.268 5.11433 192.426 5.11433H193.537C193.711 5.11433 193.845 5.16556 193.939 5.26801C194.034 5.37046 194.081 5.50049 194.081 5.65811V21.3567C194.081 21.5144 194.034 21.6444 193.939 21.7468ZM202.506 22.1367C203.326 22.1367 204.051 22.0303 204.682 21.8175C205.312 21.6048 205.848 21.3329 206.289 21.0019C206.731 20.6709 207.069 20.3359 207.306 19.9971C207.542 19.6582 207.668 19.3705 207.684 19.1341C207.7 18.9765 207.657 18.8543 207.554 18.7677C207.452 18.681 207.322 18.6376 207.164 18.6376H206.029C205.856 18.6376 205.73 18.6573 205.651 18.6967C205.572 18.7361 205.462 18.8583 205.32 19.0632C205.241 19.1735 205.084 19.3351 204.847 19.5479C204.611 19.7606 204.303 19.9537 203.925 20.1271C203.547 20.3005 203.074 20.3872 202.506 20.3872C201.844 20.3872 201.277 20.2138 200.804 19.867C200.331 19.5203 199.969 19.0671 199.717 18.5076C199.464 17.9481 199.323 17.3452 199.291 16.6989V16.4862H207.471C207.629 16.4862 207.759 16.4389 207.861 16.3443C207.964 16.2497 208.015 16.1158 208.015 15.9424V15.5405C208.015 14.2953 207.802 13.2077 207.377 12.2778C206.951 11.3479 206.333 10.6307 205.521 10.1263C204.709 9.62195 203.704 9.36976 202.506 9.36976C201.435 9.36976 200.501 9.5983 199.705 10.0554C198.909 10.5125 198.282 11.1627 197.825 12.0059C197.368 12.8492 197.108 13.8303 197.045 14.9494C197.029 15.1543 197.021 15.4183 197.021 15.7414C197.021 16.0645 197.029 16.3285 197.045 16.5334C197.14 18.2672 197.668 19.6346 198.629 20.6354C199.591 21.6363 200.883 22.1367 202.506 22.1367ZM199.291 14.855H205.769V14.784C205.769 14.0748 205.639 13.4443 205.379 12.8926C205.119 12.341 204.745 11.9036 204.256 11.5805C203.767 11.2574 203.184 11.0958 202.507 11.0958C201.829 11.0958 201.25 11.2574 200.769 11.5805C200.288 11.9036 199.922 12.341 199.669 12.8926C199.417 13.4443 199.291 14.0748 199.291 14.784V14.855Z" fill="black"/>
<path fill-rule="evenodd" clip-rule="evenodd" d="M116.156 29.3247C116.314 29.3247 116.444 29.2735 116.546 29.171C116.649 29.0686 116.7 28.9385 116.7 28.7809V27.5042C116.7 27.3466 116.649 27.2166 116.546 27.1141C116.444 27.0117 116.314 26.9604 116.156 26.9604H114.667C114.509 26.9604 114.379 27.0117 114.277 27.1141C114.174 27.2166 114.123 27.3466 114.123 27.5042V28.7809C114.123 28.9385 114.174 29.0686 114.277 29.171C114.379 29.2735 114.509 29.3247 114.667 29.3247H116.156ZM110.639 43.7586C110.544 43.861 110.41 43.9122 110.237 43.9122H109.126C108.968 43.9122 108.838 43.861 108.736 43.7586C108.633 43.6561 108.582 43.5261 108.582 43.3685V27.6698C108.582 27.5122 108.633 27.3822 108.736 27.2797C108.838 27.1773 108.968 27.126 109.126 27.126H110.237C110.41 27.126 110.544 27.1773 110.639 27.2797C110.733 27.3822 110.781 27.5122 110.781 27.6698V43.3685C110.781 43.5261 110.733 43.6561 110.639 43.7586ZM70.7514 44.1484C71.5079 44.1484 72.1463 44.0578 72.6664 43.8765C73.1865 43.6953 73.62 43.4667 73.9667 43.1909C74.3135 42.9151 74.5893 42.6353 74.7942 42.3516V43.3682C74.7942 43.5259 74.8415 43.6559 74.9361 43.7583C75.0307 43.8608 75.1646 43.912 75.338 43.912H76.4256C76.5832 43.912 76.7132 43.8608 76.8157 43.7583C76.9181 43.6559 76.9693 43.5259 76.9693 43.3682V35.7081C76.9693 35.1722 76.8866 34.6441 76.7211 34.124C76.5556 33.6039 76.2877 33.1389 75.9173 32.7291C75.5469 32.3193 75.0385 31.9922 74.3923 31.7479C73.7461 31.5036 72.9501 31.3815 72.0044 31.3815C71.1533 31.3815 70.4322 31.4958 69.8411 31.7243C69.2501 31.9528 68.7654 32.2326 68.3871 32.5636C68.0088 32.8946 67.7291 33.2335 67.5478 33.5802C67.3665 33.927 67.2759 34.2186 67.2759 34.455C67.2759 34.5969 67.3193 34.719 67.4059 34.8215C67.4926 34.9239 67.6227 34.9751 67.796 34.9751H68.86C69.0964 34.9751 69.2619 34.8569 69.3565 34.6205C69.5298 34.1792 69.8332 33.8167 70.2667 33.5329C70.7001 33.2492 71.2715 33.1074 71.9808 33.1074C72.958 33.1074 73.6633 33.3202 74.0968 33.7457C74.5302 34.1713 74.7469 34.7624 74.7469 35.5189V36.2046L71.2242 36.701C69.8057 36.9059 68.6551 37.3315 67.7724 37.9777C66.8898 38.624 66.4484 39.4909 66.4484 40.5784C66.4484 41.2562 66.6454 41.863 67.0395 42.3989C67.4335 42.9348 67.9537 43.3604 68.5999 43.6756C69.2461 43.9908 69.9633 44.1484 70.7514 44.1484ZM71.2478 42.3754C70.8223 42.3754 70.4085 42.3045 70.0066 42.1626C69.6047 42.0208 69.2737 41.804 69.0136 41.5124C68.7535 41.2209 68.6235 40.8544 68.6235 40.4131C68.6235 39.8456 68.9072 39.3767 69.4746 39.0063C70.0421 38.6359 70.8853 38.3719 72.0044 38.2143L74.7469 37.8124V38.4744C74.7469 39.357 74.5932 40.09 74.2859 40.6731C73.9785 41.2563 73.5569 41.6858 73.021 41.9617C72.4851 42.2375 71.8941 42.3754 71.2478 42.3754ZM82.4809 48.2504C82.3864 48.3529 82.2524 48.4041 82.079 48.4041H80.9442C80.7865 48.4041 80.6565 48.3529 80.5541 48.2504C80.4516 48.148 80.4004 48.0179 80.4004 47.8603V32.1617C80.4004 32.0041 80.4516 31.874 80.5541 31.7716C80.6565 31.6691 80.7865 31.6179 80.9442 31.6179H82.0317C82.1893 31.6179 82.3194 31.6691 82.4218 31.7716C82.5243 31.874 82.5755 32.0041 82.5755 32.1617V33.202C82.9538 32.6818 83.4581 32.2484 84.0886 31.9016C84.7191 31.5549 85.5072 31.3815 86.4529 31.3815C87.3355 31.3815 88.0881 31.5312 88.7107 31.8307C89.3333 32.1302 89.8456 32.54 90.2475 33.0601C90.6494 33.5802 90.9528 34.1713 91.1577 34.8333C91.3626 35.4953 91.473 36.2046 91.4887 36.9611C91.5045 37.2133 91.5124 37.4812 91.5124 37.765C91.5124 38.0487 91.5045 38.3166 91.4887 38.5688C91.473 39.3096 91.3626 40.0149 91.1577 40.6848C90.9528 41.3547 90.6494 41.9457 90.2475 42.458C89.8456 42.9703 89.3333 43.3801 88.7107 43.6874C88.0881 43.9948 87.3355 44.1484 86.4529 44.1484C85.5387 44.1484 84.7703 43.979 84.1477 43.6401C83.5251 43.3012 83.0168 42.8796 82.6228 42.3752V47.8603C82.6228 48.0179 82.5755 48.148 82.4809 48.2504ZM85.9564 42.2335C85.2156 42.2335 84.6009 42.0601 84.1123 41.7134C83.6237 41.3666 83.2572 40.9253 83.0129 40.3894C82.7686 39.8535 82.6386 39.3097 82.6228 38.758C82.607 38.4901 82.5992 38.1827 82.5992 37.836C82.5992 37.4892 82.607 37.1898 82.6228 36.9376C82.6543 36.3544 82.7844 35.783 83.0129 35.2235C83.2414 34.6639 83.5961 34.2029 84.0768 33.8404C84.5575 33.4779 85.1841 33.2966 85.9564 33.2966C86.776 33.2966 87.4183 33.4739 87.8833 33.8286C88.3482 34.1832 88.6832 34.6482 88.8881 35.2235C89.093 35.7988 89.2112 36.4174 89.2427 37.0794C89.2585 37.5365 89.2585 37.9936 89.2427 38.4507C89.2112 39.1127 89.093 39.7313 88.8881 40.3066C88.6832 40.8819 88.3482 41.3469 87.8833 41.7015C87.4183 42.0562 86.776 42.2335 85.9564 42.2335ZM96.5716 48.2504C96.477 48.3529 96.3431 48.4041 96.1697 48.4041H95.0348C94.8772 48.4041 94.7472 48.3529 94.6447 48.2504C94.5423 48.148 94.4911 48.0179 94.4911 47.8603V32.1617C94.4911 32.0041 94.5423 31.874 94.6447 31.7716C94.7472 31.6691 94.8772 31.6179 95.0348 31.6179H96.1224C96.28 31.6179 96.4101 31.6691 96.5125 31.7716C96.615 31.874 96.6662 32.0041 96.6662 32.1617V33.202C97.0445 32.6818 97.5488 32.2484 98.1793 31.9016C98.8098 31.5549 99.5979 31.3815 100.544 31.3815C101.426 31.3815 102.179 31.5312 102.801 31.8307C103.424 32.1302 103.936 32.54 104.338 33.0601C104.74 33.5802 105.044 34.1713 105.248 34.8333C105.453 35.4953 105.564 36.2046 105.579 36.9611C105.595 37.2133 105.603 37.4812 105.603 37.765C105.603 38.0487 105.595 38.3166 105.579 38.5688C105.564 39.3096 105.453 40.0149 105.248 40.6848C105.044 41.3547 104.74 41.9457 104.338 42.458C103.936 42.9703 103.424 43.3801 102.801 43.6874C102.179 43.9948 101.426 44.1484 100.544 44.1484C99.6294 44.1484 98.861 43.979 98.2384 43.6401C97.6158 43.3012 97.1075 42.8796 96.7135 42.3752V47.8603C96.7135 48.0179 96.6662 48.148 96.5716 48.2504ZM100.047 42.2335C99.3063 42.2335 98.6916 42.0601 98.203 41.7134C97.7144 41.3666 97.3479 40.9253 97.1036 40.3894C96.8593 39.8535 96.7292 39.3097 96.7135 38.758C96.6977 38.4901 96.6898 38.1827 96.6898 37.836C96.6898 37.4892 96.6977 37.1898 96.7135 36.9376C96.745 36.3544 96.875 35.783 97.1036 35.2235C97.3321 34.6639 97.6868 34.2029 98.1675 33.8404C98.6482 33.4779 99.2748 33.2966 100.047 33.2966C100.867 33.2966 101.509 33.4739 101.974 33.8286C102.439 34.1832 102.774 34.6482 102.979 35.2235C103.184 35.7988 103.302 36.4174 103.333 37.0794C103.349 37.5365 103.349 37.9936 103.333 38.4507C103.302 39.1127 103.184 39.7313 102.979 40.3066C102.774 40.8819 102.439 41.3469 101.974 41.7015C101.509 42.0562 100.867 42.2335 100.047 42.2335ZM116.369 43.7584C116.274 43.8608 116.148 43.912 115.991 43.912H114.856C114.698 43.912 114.568 43.8608 114.466 43.7584C114.363 43.6559 114.312 43.5259 114.312 43.3683V32.1617C114.312 32.0041 114.363 31.8741 114.466 31.7716C114.568 31.6692 114.698 31.6179 114.856 31.6179H115.991C116.148 31.6179 116.274 31.6692 116.369 31.7716C116.464 31.8741 116.511 32.0041 116.511 32.1617V43.3683C116.511 43.5259 116.464 43.6559 116.369 43.7584ZM124.993 44.1484C125.718 44.1484 126.368 44.0657 126.943 43.9002C127.518 43.7347 128.011 43.514 128.421 43.2382C128.831 42.9624 129.173 42.6471 129.449 42.2925C129.725 41.9379 129.926 41.5872 130.052 41.2404C130.178 40.8937 130.249 40.5548 130.265 40.2238C130.281 40.0662 130.233 39.9401 130.123 39.8455C130.013 39.7509 129.879 39.7036 129.721 39.7036H128.586C128.429 39.7036 128.31 39.7391 128.232 39.81C128.153 39.881 128.074 40.0031 127.995 40.1765C127.711 40.9488 127.325 41.4926 126.837 41.8078C126.348 42.1231 125.741 42.2807 125.016 42.2807C124.071 42.2807 123.302 41.993 122.711 41.4177C122.12 40.8424 121.801 39.9007 121.754 38.5924C121.738 38.0566 121.738 37.5049 121.754 36.9375C121.801 35.645 122.12 34.7072 122.711 34.124C123.302 33.5408 124.071 33.2492 125.016 33.2492C125.741 33.2492 126.348 33.4069 126.837 33.7221C127.325 34.0373 127.711 34.5811 127.995 35.3534C128.074 35.5268 128.153 35.649 128.232 35.7199C128.31 35.7908 128.429 35.8263 128.586 35.8263H129.721C129.879 35.8263 130.013 35.779 130.123 35.6844C130.233 35.5898 130.281 35.4638 130.265 35.3061C130.249 34.8963 130.135 34.4629 129.922 34.0058C129.709 33.5487 129.39 33.1231 128.965 32.7291C128.539 32.3351 127.999 32.0119 127.345 31.7598C126.691 31.5076 125.907 31.3815 124.993 31.3815C123.873 31.3815 122.908 31.5982 122.096 32.0316C121.285 32.4651 120.658 33.0877 120.217 33.8994C119.775 34.7111 119.539 35.6844 119.508 36.8193C119.492 37.0557 119.484 37.3709 119.484 37.765C119.484 38.159 119.492 38.4742 119.508 38.7107C119.539 39.8455 119.775 40.8188 120.217 41.6305C120.658 42.4422 121.285 43.0648 122.096 43.4983C122.908 43.9317 123.873 44.1484 124.993 44.1484ZM138.424 43.8765C137.904 44.0578 137.266 44.1484 136.509 44.1484C135.721 44.1484 135.004 43.9908 134.358 43.6756C133.712 43.3604 133.191 42.9348 132.797 42.3989C132.403 41.863 132.206 41.2562 132.206 40.5784C132.206 39.4909 132.648 38.624 133.53 37.9777C134.413 37.3315 135.564 36.9059 136.982 36.701L140.505 36.2046V35.5189C140.505 34.7624 140.288 34.1713 139.855 33.7457C139.421 33.3202 138.716 33.1074 137.739 33.1074C137.029 33.1074 136.458 33.2492 136.025 33.5329C135.591 33.8167 135.288 34.1792 135.114 34.6205C135.02 34.8569 134.854 34.9751 134.618 34.9751H133.554C133.381 34.9751 133.251 34.9239 133.164 34.8215C133.077 34.719 133.034 34.5969 133.034 34.455C133.034 34.2186 133.124 33.927 133.306 33.5802C133.487 33.2335 133.767 32.8946 134.145 32.5636C134.523 32.2326 135.008 31.9528 135.599 31.7243C136.19 31.4958 136.911 31.3815 137.762 31.3815C138.708 31.3815 139.504 31.5036 140.15 31.7479C140.796 31.9922 141.305 32.3193 141.675 32.7291C142.046 33.1389 142.314 33.6039 142.479 34.124C142.645 34.6441 142.727 35.1722 142.727 35.7081V43.3682C142.727 43.5259 142.676 43.6559 142.574 43.7583C142.471 43.8608 142.341 43.912 142.184 43.912H141.096C140.923 43.912 140.789 43.8608 140.694 43.7583C140.599 43.6559 140.552 43.5259 140.552 43.3682V42.3516C140.347 42.6353 140.071 42.9151 139.725 43.1909C139.378 43.4667 138.944 43.6953 138.424 43.8765ZM137.006 42.3754C136.58 42.3754 136.166 42.3045 135.765 42.1626C135.363 42.0208 135.032 41.804 134.772 41.5124C134.511 41.2209 134.381 40.8544 134.381 40.4131C134.381 39.8456 134.665 39.3767 135.233 39.0063C135.8 38.6359 136.643 38.3719 137.762 38.2143L140.505 37.8124V38.4744C140.505 39.357 140.351 40.09 140.044 40.6731C139.736 41.2563 139.315 41.6858 138.779 41.9617C138.243 42.2375 137.652 42.3754 137.006 42.3754ZM152.837 43.7586C152.735 43.861 152.605 43.9122 152.447 43.9122H150.816C149.933 43.9122 149.216 43.7428 148.664 43.4039C148.113 43.065 147.711 42.5843 147.459 41.9617C147.206 41.3391 147.08 40.6023 147.08 39.7512V33.5095H145.236C145.079 33.5095 144.949 33.4583 144.846 33.3559C144.744 33.2534 144.692 33.1234 144.692 32.9658V32.1619C144.692 32.0043 144.744 31.8743 144.846 31.7718C144.949 31.6694 145.079 31.6181 145.236 31.6181H147.08V27.6698C147.08 27.5122 147.132 27.3822 147.234 27.2797C147.336 27.1773 147.466 27.126 147.624 27.126H148.735C148.893 27.126 149.023 27.1773 149.125 27.2797C149.228 27.3822 149.279 27.5122 149.279 27.6698V31.6181H152.211C152.368 31.6181 152.498 31.6694 152.601 31.7718C152.703 31.8743 152.755 32.0043 152.755 32.1619V32.9658C152.755 33.1234 152.703 33.2534 152.601 33.3559C152.498 33.4583 152.368 33.5095 152.211 33.5095H149.279V39.5857C149.279 40.3265 149.405 40.9096 149.657 41.3352C149.91 41.7608 150.359 41.9735 151.005 41.9735H152.447C152.605 41.9735 152.735 42.0248 152.837 42.1272C152.94 42.2297 152.991 42.3597 152.991 42.5173V43.3685C152.991 43.5261 152.94 43.6561 152.837 43.7586ZM157.115 29.3247C157.272 29.3247 157.402 29.2735 157.505 29.171C157.607 29.0686 157.659 28.9385 157.659 28.7809V27.5042C157.659 27.3466 157.607 27.2166 157.505 27.1141C157.402 27.0117 157.272 26.9604 157.115 26.9604H155.625C155.468 26.9604 155.338 27.0117 155.235 27.1141C155.133 27.2166 155.082 27.3466 155.082 27.5042V28.7809C155.082 28.9385 155.133 29.0686 155.235 29.171C155.338 29.2735 155.468 29.3247 155.625 29.3247H157.115ZM157.328 43.7584C157.233 43.8608 157.107 43.912 156.949 43.912H155.815C155.657 43.912 155.527 43.8608 155.424 43.7584C155.322 43.6559 155.271 43.5259 155.271 43.3683V32.1617C155.271 32.0041 155.322 31.8741 155.424 31.7716C155.527 31.6692 155.657 31.6179 155.815 31.6179H156.949C157.107 31.6179 157.233 31.6692 157.328 31.7716C157.422 31.8741 157.47 32.0041 157.47 32.1617V43.3683C157.47 43.5259 157.422 43.6559 157.328 43.7584ZM166.022 44.1484C167.22 44.1484 168.221 43.9199 169.025 43.4628C169.828 43.0057 170.443 42.3713 170.869 41.5596C171.294 40.7479 171.531 39.8219 171.578 38.7816C171.594 38.5136 171.602 38.1708 171.602 37.7531C171.602 37.3355 171.594 37.0005 171.578 36.7483C171.531 35.6923 171.29 34.7624 170.857 33.9585C170.423 33.1547 169.805 32.5242 169.001 32.0671C168.197 31.61 167.204 31.3815 166.022 31.3815C164.84 31.3815 163.847 31.61 163.043 32.0671C162.239 32.5242 161.621 33.1547 161.187 33.9585C160.754 34.7624 160.513 35.6923 160.466 36.7483C160.45 37.0005 160.442 37.3355 160.442 37.7531C160.442 38.1708 160.45 38.5136 160.466 38.7816C160.513 39.8219 160.75 40.7479 161.175 41.5596C161.601 42.3713 162.216 43.0057 163.019 43.4628C163.823 43.9199 164.824 44.1484 166.022 44.1484ZM163.67 41.394C164.261 42.0166 165.045 42.3279 166.022 42.3279C166.999 42.3279 167.779 42.0166 168.363 41.394C168.946 40.7714 169.261 39.8612 169.308 38.6633C169.324 38.4269 169.332 38.1274 169.332 37.7649C169.332 37.4024 169.324 37.1029 169.308 36.8665C169.261 35.6686 168.946 34.7583 168.363 34.1358C167.779 33.5132 166.999 33.2019 166.022 33.2019C165.045 33.2019 164.261 33.5132 163.67 34.1358C163.079 34.7583 162.767 35.6686 162.736 36.8665C162.72 37.1029 162.712 37.4024 162.712 37.7649C162.712 38.1274 162.72 38.4269 162.736 38.6633C162.767 39.8612 163.079 40.7714 163.67 41.394ZM176.277 43.912C176.434 43.912 176.565 43.8608 176.667 43.7583C176.769 43.6559 176.821 43.5259 176.821 43.3682V36.8193C176.821 35.7159 177.116 34.853 177.707 34.2304C178.298 33.6078 179.082 33.2965 180.06 33.2965C181.1 33.2965 181.888 33.6078 182.424 34.2304C182.96 34.853 183.228 35.7159 183.228 36.8193V43.3682C183.228 43.5259 183.279 43.6559 183.381 43.7583C183.484 43.8608 183.614 43.912 183.772 43.912H184.954C185.111 43.912 185.237 43.8608 185.332 43.7583C185.427 43.6559 185.474 43.5259 185.474 43.3682V36.701C185.474 35.645 185.293 34.719 184.93 33.923C184.568 33.1271 184.028 32.5045 183.311 32.0553C182.593 31.6061 181.723 31.3815 180.698 31.3815C179.721 31.3815 178.921 31.5509 178.298 31.8898C177.676 32.2287 177.16 32.6661 176.75 33.202V32.1617C176.75 32.0041 176.699 31.874 176.596 31.7716C176.494 31.6691 176.364 31.6179 176.206 31.6179H175.095C174.937 31.6179 174.807 31.6691 174.705 31.7716C174.602 31.874 174.551 32.0041 174.551 32.1617V43.3682C174.551 43.5259 174.602 43.6559 174.705 43.7583C174.807 43.8608 174.937 43.912 175.095 43.912H176.277ZM195.906 43.6638C195.157 43.9869 194.231 44.1484 193.128 44.1484C192.245 44.1484 191.489 44.0381 190.858 43.8174C190.228 43.5968 189.716 43.3288 189.322 43.0136C188.927 42.6984 188.632 42.3831 188.435 42.0679C188.238 41.7527 188.132 41.5005 188.116 41.3113C188.1 41.138 188.155 41.004 188.281 40.9094C188.407 40.8148 188.533 40.7676 188.66 40.7676H189.7C189.794 40.7676 189.869 40.7794 189.924 40.803C189.98 40.8267 190.054 40.8937 190.149 41.004C190.354 41.2246 190.582 41.4453 190.835 41.666C191.087 41.8866 191.398 42.0679 191.769 42.2098C192.139 42.3516 192.6 42.4225 193.152 42.4225C193.955 42.4225 194.617 42.2689 195.138 41.9615C195.658 41.6542 195.918 41.201 195.918 40.6021C195.918 40.208 195.811 39.8928 195.599 39.6564C195.386 39.4199 195.008 39.2072 194.464 39.018C193.92 38.8289 193.175 38.6319 192.23 38.4269C191.284 38.2063 190.535 37.9344 189.983 37.6113C189.432 37.2882 189.038 36.902 188.801 36.4528C188.565 36.0036 188.447 35.4953 188.447 34.9279C188.447 34.3447 188.62 33.7812 188.967 33.2374C189.314 32.6936 189.822 32.2484 190.492 31.9016C191.162 31.5549 192.001 31.3815 193.01 31.3815C193.829 31.3815 194.531 31.4839 195.114 31.6888C195.697 31.8937 196.178 32.1499 196.556 32.4572C196.934 32.7646 197.218 33.068 197.407 33.3675C197.596 33.6669 197.699 33.9191 197.715 34.124C197.73 34.2816 197.683 34.4117 197.573 34.5141C197.462 34.6166 197.336 34.6678 197.194 34.6678H196.201C196.091 34.6678 196.001 34.6441 195.93 34.5969C195.859 34.5496 195.792 34.4944 195.729 34.4314C195.571 34.2265 195.386 34.0216 195.173 33.8167C194.96 33.6118 194.684 33.4423 194.346 33.3083C194.007 33.1744 193.561 33.1074 193.01 33.1074C192.222 33.1074 191.631 33.2729 191.237 33.6039C190.843 33.9349 190.645 34.3526 190.645 34.8569C190.645 35.1564 190.732 35.4243 190.906 35.6608C191.079 35.8972 191.41 36.11 191.899 36.2991C192.387 36.4883 193.112 36.6932 194.074 36.9138C195.114 37.1187 195.934 37.3946 196.532 37.7413C197.131 38.0881 197.557 38.49 197.809 38.9471C198.061 39.4042 198.187 39.9322 198.187 40.5311C198.187 41.1931 197.994 41.7999 197.608 42.3516C197.222 42.9033 196.655 43.3407 195.906 43.6638Z" fill="black"/>
<path fill-rule="evenodd" clip-rule="evenodd" d="M116.156 29.3247C116.314 29.3247 116.444 29.2735 116.546 29.171C116.649 29.0686 116.7 28.9385 116.7 28.7809V27.5042C116.7 27.3466 116.649 27.2166 116.546 27.1141C116.444 27.0117 116.314 26.9604 116.156 26.9604H114.667C114.509 26.9604 114.379 27.0117 114.277 27.1141C114.174 27.2166 114.123 27.3466 114.123 27.5042V28.7809C114.123 28.9385 114.174 29.0686 114.277 29.171C114.379 29.2735 114.509 29.3247 114.667 29.3247H116.156ZM110.639 43.7586C110.544 43.861 110.41 43.9122 110.237 43.9122H109.126C108.968 43.9122 108.838 43.861 108.736 43.7586C108.633 43.6561 108.582 43.5261 108.582 43.3685V27.6698C108.582 27.5122 108.633 27.3822 108.736 27.2797C108.838 27.1773 108.968 27.126 109.126 27.126H110.237C110.41 27.126 110.544 27.1773 110.639 27.2797C110.733 27.3822 110.781 27.5122 110.781 27.6698V43.3685C110.781 43.5261 110.733 43.6561 110.639 43.7586ZM70.7514 44.1484C71.5079 44.1484 72.1463 44.0578 72.6664 43.8765C73.1865 43.6953 73.62 43.4667 73.9667 43.1909C74.3135 42.9151 74.5893 42.6353 74.7942 42.3516V43.3682C74.7942 43.5259 74.8415 43.6559 74.9361 43.7583C75.0307 43.8608 75.1646 43.912 75.338 43.912H76.4256C76.5832 43.912 76.7132 43.8608 76.8157 43.7583C76.9181 43.6559 76.9693 43.5259 76.9693 43.3682V35.7081C76.9693 35.1722 76.8866 34.6441 76.7211 34.124C76.5556 33.6039 76.2877 33.1389 75.9173 32.7291C75.5469 32.3193 75.0385 31.9922 74.3923 31.7479C73.7461 31.5036 72.9501 31.3815 72.0044 31.3815C71.1533 31.3815 70.4322 31.4958 69.8411 31.7243C69.2501 31.9528 68.7654 32.2326 68.3871 32.5636C68.0088 32.8946 67.7291 33.2335 67.5478 33.5802C67.3665 33.927 67.2759 34.2186 67.2759 34.455C67.2759 34.5969 67.3193 34.719 67.4059 34.8215C67.4926 34.9239 67.6227 34.9751 67.796 34.9751H68.86C69.0964 34.9751 69.2619 34.8569 69.3565 34.6205C69.5298 34.1792 69.8332 33.8167 70.2667 33.5329C70.7001 33.2492 71.2715 33.1074 71.9808 33.1074C72.958 33.1074 73.6633 33.3202 74.0968 33.7457C74.5302 34.1713 74.7469 34.7624 74.7469 35.5189V36.2046L71.2242 36.701C69.8057 36.9059 68.6551 37.3315 67.7724 37.9777C66.8898 38.624 66.4484 39.4909 66.4484 40.5784C66.4484 41.2562 66.6454 41.863 67.0395 42.3989C67.4335 42.9348 67.9537 43.3604 68.5999 43.6756C69.2461 43.9908 69.9633 44.1484 70.7514 44.1484ZM71.2478 42.3754C70.8223 42.3754 70.4085 42.3045 70.0066 42.1626C69.6047 42.0208 69.2737 41.804 69.0136 41.5124C68.7535 41.2209 68.6235 40.8544 68.6235 40.4131C68.6235 39.8456 68.9072 39.3767 69.4746 39.0063C70.0421 38.6359 70.8853 38.3719 72.0044 38.2143L74.7469 37.8124V38.4744C74.7469 39.357 74.5932 40.09 74.2859 40.6731C73.9785 41.2563 73.5569 41.6858 73.021 41.9617C72.4851 42.2375 71.8941 42.3754 71.2478 42.3754ZM82.4809 48.2504C82.3864 48.3529 82.2524 48.4041 82.079 48.4041H80.9442C80.7865 48.4041 80.6565 48.3529 80.5541 48.2504C80.4516 48.148 80.4004 48.0179 80.4004 47.8603V32.1617C80.4004 32.0041 80.4516 31.874 80.5541 31.7716C80.6565 31.6691 80.7865 31.6179 80.9442 31.6179H82.0317C82.1893 31.6179 82.3194 31.6691 82.4218 31.7716C82.5243 31.874 82.5755 32.0041 82.5755 32.1617V33.202C82.9538 32.6818 83.4581 32.2484 84.0886 31.9016C84.7191 31.5549 85.5072 31.3815 86.4529 31.3815C87.3355 31.3815 88.0881 31.5312 88.7107 31.8307C89.3333 32.1302 89.8456 32.54 90.2475 33.0601C90.6494 33.5802 90.9528 34.1713 91.1577 34.8333C91.3626 35.4953 91.473 36.2046 91.4887 36.9611C91.5045 37.2133 91.5124 37.4812 91.5124 37.765C91.5124 38.0487 91.5045 38.3166 91.4887 38.5688C91.473 39.3096 91.3626 40.0149 91.1577 40.6848C90.9528 41.3547 90.6494 41.9457 90.2475 42.458C89.8456 42.9703 89.3333 43.3801 88.7107 43.6874C88.0881 43.9948 87.3355 44.1484 86.4529 44.1484C85.5387 44.1484 84.7703 43.979 84.1477 43.6401C83.5251 43.3012 83.0168 42.8796 82.6228 42.3752V47.8603C82.6228 48.0179 82.5755 48.148 82.4809 48.2504ZM85.9564 42.2335C85.2156 42.2335 84.6009 42.0601 84.1123 41.7134C83.6237 41.3666 83.2572 40.9253 83.0129 40.3894C82.7686 39.8535 82.6386 39.3097 82.6228 38.758C82.607 38.4901 82.5992 38.1827 82.5992 37.836C82.5992 37.4892 82.607 37.1898 82.6228 36.9376C82.6543 36.3544 82.7844 35.783 83.0129 35.2235C83.2414 34.6639 83.5961 34.2029 84.0768 33.8404C84.5575 33.4779 85.1841 33.2966 85.9564 33.2966C86.776 33.2966 87.4183 33.4739 87.8833 33.8286C88.3482 34.1832 88.6832 34.6482 88.8881 35.2235C89.093 35.7988 89.2112 36.4174 89.2427 37.0794C89.2585 37.5365 89.2585 37.9936 89.2427 38.4507C89.2112 39.1127 89.093 39.7313 88.8881 40.3066C88.6832 40.8819 88.3482 41.3469 87.8833 41.7015C87.4183 42.0562 86.776 42.2335 85.9564 42.2335ZM96.5716 48.2504C96.477 48.3529 96.3431 48.4041 96.1697 48.4041H95.0348C94.8772 48.4041 94.7472 48.3529 94.6447 48.2504C94.5423 48.148 94.4911 48.0179 94.4911 47.8603V32.1617C94.4911 32.0041 94.5423 31.874 94.6447 31.7716C94.7472 31.6691 94.8772 31.6179 95.0348 31.6179H96.1224C96.28 31.6179 96.4101 31.6691 96.5125 31.7716C96.615 31.874 96.6662 32.0041 96.6662 32.1617V33.202C97.0445 32.6818 97.5488 32.2484 98.1793 31.9016C98.8098 31.5549 99.5979 31.3815 100.544 31.3815C101.426 31.3815 102.179 31.5312 102.801 31.8307C103.424 32.1302 103.936 32.54 104.338 33.0601C104.74 33.5802 105.044 34.1713 105.248 34.8333C105.453 35.4953 105.564 36.2046 105.579 36.9611C105.595 37.2133 105.603 37.4812 105.603 37.765C105.603 38.0487 105.595 38.3166 105.579 38.5688C105.564 39.3096 105.453 40.0149 105.248 40.6848C105.044 41.3547 104.74 41.9457 104.338 42.458C103.936 42.9703 103.424 43.3801 102.801 43.6874C102.179 43.9948 101.426 44.1484 100.544 44.1484C99.6294 44.1484 98.861 43.979 98.2384 43.6401C97.6158 43.3012 97.1075 42.8796 96.7135 42.3752V47.8603C96.7135 48.0179 96.6662 48.148 96.5716 48.2504ZM100.047 42.2335C99.3063 42.2335 98.6916 42.0601 98.203 41.7134C97.7144 41.3666 97.3479 40.9253 97.1036 40.3894C96.8593 39.8535 96.7292 39.3097 96.7135 38.758C96.6977 38.4901 96.6898 38.1827 96.6898 37.836C96.6898 37.4892 96.6977 37.1898 96.7135 36.9376C96.745 36.3544 96.875 35.783 97.1036 35.2235C97.3321 34.6639 97.6868 34.2029 98.1675 33.8404C98.6482 33.4779 99.2748 33.2966 100.047 33.2966C100.867 33.2966 101.509 33.4739 101.974 33.8286C102.439 34.1832 102.774 34.6482 102.979 35.2235C103.184 35.7988 103.302 36.4174 103.333 37.0794C103.349 37.5365 103.349 37.9936 103.333 38.4507C103.302 39.1127 103.184 39.7313 102.979 40.3066C102.774 40.8819 102.439 41.3469 101.974 41.7015C101.509 42.0562 100.867 42.2335 100.047 42.2335ZM116.369 43.7584C116.274 43.8608 116.148 43.912 115.991 43.912H114.856C114.698 43.912 114.568 43.8608 114.466 43.7584C114.363 43.6559 114.312 43.5259 114.312 43.3683V32.1617C114.312 32.0041 114.363 31.8741 114.466 31.7716C114.568 31.6692 114.698 31.6179 114.856 31.6179H115.991C116.148 31.6179 116.274 31.6692 116.369 31.7716C116.464 31.8741 116.511 32.0041 116.511 32.1617V43.3683C116.511 43.5259 116.464 43.6559 116.369 43.7584ZM124.993 44.1484C125.718 44.1484 126.368 44.0657 126.943 43.9002C127.518 43.7347 128.011 43.514 128.421 43.2382C128.831 42.9624 129.173 42.6471 129.449 42.2925C129.725 41.9379 129.926 41.5872 130.052 41.2404C130.178 40.8937 130.249 40.5548 130.265 40.2238C130.281 40.0662 130.233 39.9401 130.123 39.8455C130.013 39.7509 129.879 39.7036 129.721 39.7036H128.586C128.429 39.7036 128.31 39.7391 128.232 39.81C128.153 39.881 128.074 40.0031 127.995 40.1765C127.711 40.9488 127.325 41.4926 126.837 41.8078C126.348 42.1231 125.741 42.2807 125.016 42.2807C124.071 42.2807 123.302 41.993 122.711 41.4177C122.12 40.8424 121.801 39.9007 121.754 38.5924C121.738 38.0566 121.738 37.5049 121.754 36.9375C121.801 35.645 122.12 34.7072 122.711 34.124C123.302 33.5408 124.071 33.2492 125.016 33.2492C125.741 33.2492 126.348 33.4069 126.837 33.7221C127.325 34.0373 127.711 34.5811 127.995 35.3534C128.074 35.5268 128.153 35.649 128.232 35.7199C128.31 35.7908 128.429 35.8263 128.586 35.8263H129.721C129.879 35.8263 130.013 35.779 130.123 35.6844C130.233 35.5898 130.281 35.4638 130.265 35.3061C130.249 34.8963 130.135 34.4629 129.922 34.0058C129.709 33.5487 129.39 33.1231 128.965 32.7291C128.539 32.3351 127.999 32.0119 127.345 31.7598C126.691 31.5076 125.907 31.3815 124.993 31.3815C123.873 31.3815 122.908 31.5982 122.096 32.0316C121.285 32.4651 120.658 33.0877 120.217 33.8994C119.775 34.7111 119.539 35.6844 119.508 36.8193C119.492 37.0557 119.484 37.3709 119.484 37.765C119.484 38.159 119.492 38.4742 119.508 38.7107C119.539 39.8455 119.775 40.8188 120.217 41.6305C120.658 42.4422 121.285 43.0648 122.096 43.4983C122.908 43.9317 123.873 44.1484 124.993 44.1484ZM138.424 43.8765C137.904 44.0578 137.266 44.1484 136.509 44.1484C135.721 44.1484 135.004 43.9908 134.358 43.6756C133.712 43.3604 133.191 42.9348 132.797 42.3989C132.403 41.863 132.206 41.2562 132.206 40.5784C132.206 39.4909 132.648 38.624 133.53 37.9777C134.413 37.3315 135.564 36.9059 136.982 36.701L140.505 36.2046V35.5189C140.505 34.7624 140.288 34.1713 139.855 33.7457C139.421 33.3202 138.716 33.1074 137.739 33.1074C137.029 33.1074 136.458 33.2492 136.025 33.5329C135.591 33.8167 135.288 34.1792 135.114 34.6205C135.02 34.8569 134.854 34.9751 134.618 34.9751H133.554C133.381 34.9751 133.251 34.9239 133.164 34.8215C133.077 34.719 133.034 34.5969 133.034 34.455C133.034 34.2186 133.124 33.927 133.306 33.5802C133.487 33.2335 133.767 32.8946 134.145 32.5636C134.523 32.2326 135.008 31.9528 135.599 31.7243C136.19 31.4958 136.911 31.3815 137.762 31.3815C138.708 31.3815 139.504 31.5036 140.15 31.7479C140.796 31.9922 141.305 32.3193 141.675 32.7291C142.046 33.1389 142.314 33.6039 142.479 34.124C142.645 34.6441 142.727 35.1722 142.727 35.7081V43.3682C142.727 43.5259 142.676 43.6559 142.574 43.7583C142.471 43.8608 142.341 43.912 142.184 43.912H141.096C140.923 43.912 140.789 43.8608 140.694 43.7583C140.599 43.6559 140.552 43.5259 140.552 43.3682V42.3516C140.347 42.6353 140.071 42.9151 139.725 43.1909C139.378 43.4667 138.944 43.6953 138.424 43.8765ZM137.006 42.3754C136.58 42.3754 136.166 42.3045 135.765 42.1626C135.363 42.0208 135.032 41.804 134.772 41.5124C134.511 41.2209 134.381 40.8544 134.381 40.4131C134.381 39.8456 134.665 39.3767 135.233 39.0063C135.8 38.6359 136.643 38.3719 137.762 38.2143L140.505 37.8124V38.4744C140.505 39.357 140.351 40.09 140.044 40.6731C139.736 41.2563 139.315 41.6858 138.779 41.9617C138.243 42.2375 137.652 42.3754 137.006 42.3754ZM152.837 43.7586C152.735 43.861 152.605 43.9122 152.447 43.9122H150.816C149.933 43.9122 149.216 43.7428 148.664 43.4039C148.113 43.065 147.711 42.5843 147.459 41.9617C147.206 41.3391 147.08 40.6023 147.08 39.7512V33.5095H145.236C145.079 33.5095 144.949 33.4583 144.846 33.3559C144.744 33.2534 144.692 33.1234 144.692 32.9658V32.1619C144.692 32.0043 144.744 31.8743 144.846 31.7718C144.949 31.6694 145.079 31.6181 145.236 31.6181H147.08V27.6698C147.08 27.5122 147.132 27.3822 147.234 27.2797C147.336 27.1773 147.466 27.126 147.624 27.126H148.735C148.893 27.126 149.023 27.1773 149.125 27.2797C149.228 27.3822 149.279 27.5122 149.279 27.6698V31.6181H152.211C152.368 31.6181 152.498 31.6694 152.601 31.7718C152.703 31.8743 152.755 32.0043 152.755 32.1619V32.9658C152.755 33.1234 152.703 33.2534 152.601 33.3559C152.498 33.4583 152.368 33.5095 152.211 33.5095H149.279V39.5857C149.279 40.3265 149.405 40.9096 149.657 41.3352C149.91 41.7608 150.359 41.9735 151.005 41.9735H152.447C152.605 41.9735 152.735 42.0248 152.837 42.1272C152.94 42.2297 152.991 42.3597 152.991 42.5173V43.3685C152.991 43.5261 152.94 43.6561 152.837 43.7586ZM157.115 29.3247C157.272 29.3247 157.402 29.2735 157.505 29.171C157.607 29.0686 157.659 28.9385 157.659 28.7809V27.5042C157.659 27.3466 157.607 27.2166 157.505 27.1141C157.402 27.0117 157.272 26.9604 157.115 26.9604H155.625C155.468 26.9604 155.338 27.0117 155.235 27.1141C155.133 27.2166 155.082 27.3466 155.082 27.5042V28.7809C155.082 28.9385 155.133 29.0686 155.235 29.171C155.338 29.2735 155.468 29.3247 155.625 29.3247H157.115ZM157.328 43.7584C157.233 43.8608 157.107 43.912 156.949 43.912H155.815C155.657 43.912 155.527 43.8608 155.424 43.7584C155.322 43.6559 155.271 43.5259 155.271 43.3683V32.1617C155.271 32.0041 155.322 31.8741 155.424 31.7716C155.527 31.6692 155.657 31.6179 155.815 31.6179H156.949C157.107 31.6179 157.233 31.6692 157.328 31.7716C157.422 31.8741 157.47 32.0041 157.47 32.1617V43.3683C157.47 43.5259 157.422 43.6559 157.328 43.7584ZM166.022 44.1484C167.22 44.1484 168.221 43.9199 169.025 43.4628C169.828 43.0057 170.443 42.3713 170.869 41.5596C171.294 40.7479 171.531 39.8219 171.578 38.7816C171.594 38.5136 171.602 38.1708 171.602 37.7531C171.602 37.3355 171.594 37.0005 171.578 36.7483C171.531 35.6923 171.29 34.7624 170.857 33.9585C170.423 33.1547 169.805 32.5242 169.001 32.0671C168.197 31.61 167.204 31.3815 166.022 31.3815C164.84 31.3815 163.847 31.61 163.043 32.0671C162.239 32.5242 161.621 33.1547 161.187 33.9585C160.754 34.7624 160.513 35.6923 160.466 36.7483C160.45 37.0005 160.442 37.3355 160.442 37.7531C160.442 38.1708 160.45 38.5136 160.466 38.7816C160.513 39.8219 160.75 40.7479 161.175 41.5596C161.601 42.3713 162.216 43.0057 163.019 43.4628C163.823 43.9199 164.824 44.1484 166.022 44.1484ZM163.67 41.394C164.261 42.0166 165.045 42.3279 166.022 42.3279C166.999 42.3279 167.779 42.0166 168.363 41.394C168.946 40.7714 169.261 39.8612 169.308 38.6633C169.324 38.4269 169.332 38.1274 169.332 37.7649C169.332 37.4024 169.324 37.1029 169.308 36.8665C169.261 35.6686 168.946 34.7583 168.363 34.1358C167.779 33.5132 166.999 33.2019 166.022 33.2019C165.045 33.2019 164.261 33.5132 163.67 34.1358C163.079 34.7583 162.767 35.6686 162.736 36.8665C162.72 37.1029 162.712 37.4024 162.712 37.7649C162.712 38.1274 162.72 38.4269 162.736 38.6633C162.767 39.8612 163.079 40.7714 163.67 41.394ZM176.277 43.912C176.434 43.912 176.565 43.8608 176.667 43.7583C176.769 43.6559 176.821 43.5259 176.821 43.3682V36.8193C176.821 35.7159 177.116 34.853 177.707 34.2304C178.298 33.6078 179.082 33.2965 180.06 33.2965C181.1 33.2965 181.888 33.6078 182.424 34.2304C182.96 34.853 183.228 35.7159 183.228 36.8193V43.3682C183.228 43.5259 183.279 43.6559 183.381 43.7583C183.484 43.8608 183.614 43.912 183.772 43.912H184.954C185.111 43.912 185.237 43.8608 185.332 43.7583C185.427 43.6559 185.474 43.5259 185.474 43.3682V36.701C185.474 35.645 185.293 34.719 184.93 33.923C184.568 33.1271 184.028 32.5045 183.311 32.0553C182.593 31.6061 181.723 31.3815 180.698 31.3815C179.721 31.3815 178.921 31.5509 178.298 31.8898C177.676 32.2287 177.16 32.6661 176.75 33.202V32.1617C176.75 32.0041 176.699 31.874 176.596 31.7716C176.494 31.6691 176.364 31.6179 176.206 31.6179H175.095C174.937 31.6179 174.807 31.6691 174.705 31.7716C174.602 31.874 174.551 32.0041 174.551 32.1617V43.3682C174.551 43.5259 174.602 43.6559 174.705 43.7583C174.807 43.8608 174.937 43.912 175.095 43.912H176.277ZM195.906 43.6638C195.157 43.9869 194.231 44.1484 193.128 44.1484C192.245 44.1484 191.489 44.0381 190.858 43.8174C190.228 43.5968 189.716 43.3288 189.322 43.0136C188.927 42.6984 188.632 42.3831 188.435 42.0679C188.238 41.7527 188.132 41.5005 188.116 41.3113C188.1 41.138 188.155 41.004 188.281 40.9094C188.407 40.8148 188.533 40.7676 188.66 40.7676H189.7C189.794 40.7676 189.869 40.7794 189.924 40.803C189.98 40.8267 190.054 40.8937 190.149 41.004C190.354 41.2246 190.582 41.4453 190.835 41.666C191.087 41.8866 191.398 42.0679 191.769 42.2098C192.139 42.3516 192.6 42.4225 193.152 42.4225C193.955 42.4225 194.617 42.2689 195.138 41.9615C195.658 41.6542 195.918 41.201 195.918 40.6021C195.918 40.208 195.811 39.8928 195.599 39.6564C195.386 39.4199 195.008 39.2072 194.464 39.018C193.92 38.8289 193.175 38.6319 192.23 38.4269C191.284 38.2063 190.535 37.9344 189.983 37.6113C189.432 37.2882 189.038 36.902 188.801 36.4528C188.565 36.0036 188.447 35.4953 188.447 34.9279C188.447 34.3447 188.62 33.7812 188.967 33.2374C189.314 32.6936 189.822 32.2484 190.492 31.9016C191.162 31.5549 192.001 31.3815 193.01 31.3815C193.829 31.3815 194.531 31.4839 195.114 31.6888C195.697 31.8937 196.178 32.1499 196.556 32.4572C196.934 32.7646 197.218 33.068 197.407 33.3675C197.596 33.6669 197.699 33.9191 197.715 34.124C197.73 34.2816 197.683 34.4117 197.573 34.5141C197.462 34.6166 197.336 34.6678 197.194 34.6678H196.201C196.091 34.6678 196.001 34.6441 195.93 34.5969C195.859 34.5496 195.792 34.4944 195.729 34.4314C195.571 34.2265 195.386 34.0216 195.173 33.8167C194.96 33.6118 194.684 33.4423 194.346 33.3083C194.007 33.1744 193.561 33.1074 193.01 33.1074C192.222 33.1074 191.631 33.2729 191.237 33.6039C190.843 33.9349 190.645 34.3526 190.645 34.8569C190.645 35.1564 190.732 35.4243 190.906 35.6608C191.079 35.8972 191.41 36.11 191.899 36.2991C192.387 36.4883 193.112 36.6932 194.074 36.9138C195.114 37.1187 195.934 37.3946 196.532 37.7413C197.131 38.0881 197.557 38.49 197.809 38.9471C198.061 39.4042 198.187 39.9322 198.187 40.5311C198.187 41.1931 197.994 41.7999 197.608 42.3516C197.222 42.9033 196.655 43.3407 195.906 43.6638Z" fill="black"/>
<path d="M39.9232 53H13.0768C5.85356 53 0 47.1464 0 39.9232V13.0768C0 5.85356 5.85356 0 13.0768 0H39.9232C47.1464 0 53 5.85356 53 13.0768V39.9232C52.9918 47.1464 47.1383 53 39.9232 53Z" fill="url(#paint0_linear)"/>
<path d="M22.1424 19.8432C22.2647 17.536 24.1561 15.6936 26.4959 15.6936C28.8275 15.6936 30.7271 17.536 30.8494 19.8432H36.2138C36.0915 14.5848 31.7869 10.3455 26.504 10.3455C21.2212 10.3455 16.9166 14.5848 16.7943 19.8432H22.1424Z" fill="white"/>
<path d="M22.1424 33.1564C22.2647 35.4636 24.1561 37.306 26.4959 37.306C28.8275 37.306 30.7271 35.4636 30.8494 33.1564H36.2138C36.0915 38.4148 31.7869 42.6541 26.504 42.6541C21.2212 42.6541 16.9166 38.4148 16.7943 33.1564H22.1424Z" fill="white"/>
<path d="M16.7861 19.8431L30.8494 33.1563H36.2056L22.1424 19.8431H16.7861Z" fill="url(#paint1_linear)"/>
<path d="M36.2056 19.8431L22.1424 33.1563H16.7861L30.8494 19.8431H36.2056Z" fill="url(#paint2_linear)"/>
<defs>
<linearGradient id="paint0_linear" x1="-32.2496" y1="40.1301" x2="39.0933" y2="116.358" gradientUnits="userSpaceOnUse">
<stop stop-color="#4BB5DE"/>
<stop offset="1" stop-color="#4C74B7"/>
</linearGradient>
<linearGradient id="paint1_linear" x1="5.36131" y1="19.9179" x2="12.1801" y2="28.7108" gradientUnits="userSpaceOnUse">
<stop stop-color="#4BB5DE"/>
<stop offset="1" stop-color="#4C74B7"/>
</linearGradient>
<linearGradient id="paint2_linear" x1="42.4594" y1="37.2338" x2="45.7105" y2="11.7647" gradientUnits="userSpaceOnUse">
<stop stop-color="#4BB5DE"/>
<stop offset="1" stop-color="#4C74B7"/>
</linearGradient>
</defs>
</svg>
