<svg width="24" height="16" viewBox="0 0 24 16" fill="none" xmlns="http://www.w3.org/2000/svg">
<path d="M15.4272 8.11949L23.2732 13.0796V2.94995L15.4272 8.11949Z" fill="#23BBDD"/>
<path d="M0 2.94995V13.0796L7.84595 8.11949L0 2.94995Z" fill="#23BBDD"/>
<path d="M21.8189 0H1.45488C0.729048 0 0.153038 0.5411 0.0439453 1.23784L11.6369 8.87579L23.2298 1.23784C23.1207 0.5411 22.5447 0 21.8189 0Z" fill="#23BBDD"/>
<path d="M14.0946 8.99767L12.0364 10.3533C11.9142 10.4333 11.776 10.4726 11.6364 10.4726C11.4968 10.4726 11.3586 10.4333 11.2364 10.3533L9.17818 8.99622L0.0463867 14.7723C0.158389 15.4632 0.731489 16 1.45441 16H21.8184C22.5413 16 23.1144 15.4632 23.2264 14.7723L14.0946 8.99767Z" fill="#23BBDD"/>
</svg>
