<svg width="14" height="24" viewBox="0 0 14 24" fill="none" xmlns="http://www.w3.org/2000/svg">
<path fill-rule="evenodd" clip-rule="evenodd" d="M10.6575 0H2.54962C1.17121 0 0 1.12393 0 2.50197V21.5009C0 22.8789 1.14642 24 2.52484 24L10.6461 23.9912C12.0243 23.9912 13.1519 22.87 13.1519 21.4917L13.1637 2.50063C13.1635 1.11764 12.0415 0 10.6575 0ZM5.43169 1.5H7.78402C7.99066 1.5 8.15898 1.66775 8.15898 1.87496C8.15898 2.08217 7.99066 2.24992 7.78402 2.24992H5.43169C5.22448 2.24992 5.05673 2.08217 5.05673 1.87496C5.05673 1.66775 5.22448 1.5 5.43169 1.5ZM4.54903 1.61945C4.41025 1.47876 4.15729 1.48067 4.01833 1.61945C3.94913 1.68883 3.90948 1.78624 3.90967 1.88575C3.90967 1.98335 3.94913 2.08076 4.01833 2.15015C4.08981 2.21973 4.18531 2.26071 4.28463 2.26071C4.38204 2.26071 4.47983 2.21973 4.54903 2.15015C4.61861 2.08057 4.65978 1.98335 4.65978 1.88575C4.65978 1.78624 4.61861 1.68883 4.54903 1.61945ZM6.53316 23.2569C5.91439 23.2569 5.41113 22.7532 5.41113 22.1347C5.41113 21.5159 5.91439 21.0125 6.53316 21.0125C7.15193 21.0125 7.65518 21.5159 7.65518 22.1347C7.65518 22.7532 7.15174 23.2569 6.53316 23.2569ZM1.31296 20.2495H12.0002V3.5625H1.31296V20.2495Z" fill="#23BBDD"/>
</svg>
