<svg width="24" height="16" viewBox="0 0 24 16" fill="none" xmlns="http://www.w3.org/2000/svg">
<path d="M1.00006 7C0.447776 7 6.10352e-05 7.44772 6.10352e-05 8C6.10352e-05 8.55228 0.447776 9 1.00006 9V7ZM23.7072 8.70711C24.0977 8.31658 24.0977 7.68342 23.7072 7.29289L17.3432 0.928932C16.9527 0.538408 16.3195 0.538408 15.929 0.928932C15.5385 1.31946 15.5385 1.95262 15.929 2.34315L21.5858 8L15.929 13.6569C15.5385 14.0474 15.5385 14.6805 15.929 15.0711C16.3195 15.4616 16.9527 15.4616 17.3432 15.0711L23.7072 8.70711ZM1.00006 9H23.0001V7H1.00006V9Z" fill="url(#paint0_linear)"/>
<defs>
<linearGradient id="paint0_linear" x1="12.0001" y1="8" x2="12.0001" y2="9" gradientUnits="userSpaceOnUse">
<stop stop-color="#7182E8"/>
<stop offset="1" stop-color="#4DAEDB"/>
</linearGradient>
</defs>
</svg>
