<svg width="128" height="128" viewBox="0 0 128 128" fill="none" xmlns="http://www.w3.org/2000/svg">
<g filter="url(#filter0_d)">
<path d="M56.0001 20H28.0001C19.1635 20 12.0001 27.1634 12.0001 36V64H56.0001V20Z" fill="#03B8B8"/>
<path d="M12.0001 72V100C12.0001 108.837 19.1635 116 28.0001 116H56.0001V72H12.0001Z" fill="#03B8B8"/>
<path d="M64.0001 116V72H108V100C108 108.837 100.837 116 92.0001 116H64.0001Z" fill="#03B8B8"/>
<path d="M72.0001 12H100C108.837 12 116 19.1634 116 28V56H72.0001V12Z" fill="#90D105"/>
<path d="M28.0001 32C28.0001 25.3726 33.3726 20 40.0001 20H96.0001C102.627 20 108 25.3726 108 32V88C108 94.6274 102.627 100 96.0001 100H40.0001C33.3726 100 28.0001 94.6274 28.0001 88V32Z" fill="url(#paint0_linear)"/>
</g>
<defs>
<filter id="filter0_d" x="6.10352e-05" y="0" width="132" height="132" filterUnits="userSpaceOnUse" color-interpolation-filters="sRGB">
<feFlood flood-opacity="0" result="BackgroundImageFix"/>
<feColorMatrix in="SourceAlpha" type="matrix" values="0 0 0 0 0 0 0 0 0 0 0 0 0 0 0 0 0 0 127 0" result="hardAlpha"/>
<feOffset dx="4" dy="4"/>
<feColorMatrix type="matrix" values="0 0 0 0 0 0 0 0 0 0.0313726 0 0 0 0 0.196078 0 0 0 0.1 0"/>
<feBlend mode="normal" in2="BackgroundImageFix" result="effect1_dropShadow"/>
<feBlend mode="normal" in="SourceGraphic" in2="effect1_dropShadow" result="shape"/>
</filter>
<linearGradient id="paint0_linear" x1="68.0001" y1="20" x2="68.0001" y2="100" gradientUnits="userSpaceOnUse">
<stop stop-color="white" stop-opacity="0.6"/>
<stop offset="1" stop-color="white" stop-opacity="0.1"/>
</linearGradient>
</defs>
</svg>
