<svg width="128" height="128" viewBox="0 0 128 128" fill="none" xmlns="http://www.w3.org/2000/svg">
<g filter="url(#filter0_d)">
<path d="M60.0001 20C33.4904 20 12.0001 41.4903 12.0001 68C12.0001 94.5097 33.4904 116 60.0001 116C86.5097 116 108 94.5097 108 68H60.0001V20Z" fill="#B132FF"/>
<path d="M116 59.9997L68.0001 59.9997V12C94.5096 12 116 33.4902 116 59.9997Z" fill="#FF32EA"/>
<path d="M108 60C108 82.0914 90.0915 100 68.0001 100C45.9087 100 28.0001 82.0914 28.0001 60C28.0001 37.9086 45.9087 20 68.0001 20C90.0915 20 108 37.9086 108 60Z" fill="url(#paint0_linear)"/>
</g>
<defs>
<filter id="filter0_d" x="6.10352e-05" y="0" width="132" height="132" filterUnits="userSpaceOnUse" color-interpolation-filters="sRGB">
<feFlood flood-opacity="0" result="BackgroundImageFix"/>
<feColorMatrix in="SourceAlpha" type="matrix" values="0 0 0 0 0 0 0 0 0 0 0 0 0 0 0 0 0 0 127 0" result="hardAlpha"/>
<feOffset dx="4" dy="4"/>
<feColorMatrix type="matrix" values="0 0 0 0 0 0 0 0 0 0.0313726 0 0 0 0 0.196078 0 0 0 0.1 0"/>
<feBlend mode="normal" in2="BackgroundImageFix" result="effect1_dropShadow"/>
<feBlend mode="normal" in="SourceGraphic" in2="effect1_dropShadow" result="shape"/>
</filter>
<linearGradient id="paint0_linear" x1="68.0001" y1="20" x2="68.0001" y2="100" gradientUnits="userSpaceOnUse">
<stop stop-color="white" stop-opacity="0.6"/>
<stop offset="1" stop-color="white" stop-opacity="0.1"/>
</linearGradient>
</defs>
</svg>
